<?xml version="1.0" encoding="UTF-8"?>
<!DOCTYPE svg PUBLIC "-//W3C//DTD SVG 1.1//EN" "http://www.w3.org/Graphics/SVG/1.1/DTD/svg11.dtd">
<svg xmlns="http://www.w3.org/2000/svg" version="1.1" width="640px" height="400px" style="shape-rendering:geometricPrecision; text-rendering:geometricPrecision; image-rendering:optimizeQuality; fill-rule:evenodd; clip-rule:evenodd" xmlns:xlink="http://www.w3.org/1999/xlink">
<g><path style="opacity:1" fill="#6bace4" d="M -0.5,-0.5 C 212.833,-0.5 426.167,-0.5 639.5,-0.5C 639.5,44.1667 639.5,88.8333 639.5,133.5C 426.167,133.5 212.833,133.5 -0.5,133.5C -0.5,88.8333 -0.5,44.1667 -0.5,-0.5 Z"/></g>
<g><path style="opacity:1" fill="#fefdfd" d="M -0.5,133.5 C 212.833,133.5 426.167,133.5 639.5,133.5C 639.5,177.5 639.5,221.5 639.5,265.5C 426.167,265.5 212.833,265.5 -0.5,265.5C -0.5,221.5 -0.5,177.5 -0.5,133.5 Z"/></g>
<g><path style="opacity:1" fill="#e2d5cf" d="M 330.5,148.5 C 329.897,153.619 330.564,158.285 332.5,162.5C 331.698,165.574 330.698,168.574 329.5,171.5C 328.469,173.463 327.469,174.797 326.5,175.5C 328.203,166.479 329.537,157.479 330.5,148.5 Z"/></g>
<g><path style="opacity:1" fill="#ebe2e0" d="M 341.5,148.5 C 342.267,149.172 342.934,150.005 343.5,151C 341.022,152.938 340.855,155.105 343,157.5C 343.5,156.333 344.333,155.5 345.5,155C 344.398,152.609 345.064,152.109 347.5,153.5C 348.88,151.023 349.88,151.023 350.5,153.5C 348.771,154.117 347.271,155.117 346,156.5C 345.275,158.949 344.275,161.283 343,163.5C 339.558,166.432 336.725,169.765 334.5,173.5C 333.356,175.1 332.189,176.767 331,178.5C 331.019,176.893 331.185,175.226 331.5,173.5C 334.819,165.22 338.152,156.887 341.5,148.5 Z"/></g>
<g><path style="opacity:1" fill="#d7a129" d="M 316.5,175.5 C 316.631,176.239 316.464,176.906 316,177.5C 314.957,173.774 314.457,174.107 314.5,178.5C 314.5,179.167 314.167,179.5 313.5,179.5C 313.737,178.209 313.404,177.209 312.5,176.5C 311.006,169.608 310.173,162.608 310,155.5C 307.09,151.851 306.924,148.185 309.5,144.5C 312.338,154.457 314.671,164.79 316.5,175.5 Z"/></g>
<g><path style="opacity:1" fill="#dda627" d="M 330.5,148.5 C 329.537,157.479 328.203,166.479 326.5,175.5C 325.681,172.695 325.181,169.695 325,166.5C 324.612,170.219 323.945,173.886 323,177.5C 322.536,176.906 322.369,176.239 322.5,175.5C 321.593,169.459 323.093,164.126 327,159.5C 327.333,155.5 327.667,151.5 328,147.5C 330.681,144.71 331.515,145.043 330.5,148.5 Z"/></g>
<g><path style="opacity:1" fill="#e2b120" d="M 350.5,153.5 C 349.816,155.449 348.649,157.115 347,158.5C 346.422,164.086 343.755,168.42 339,171.5C 337.584,174.609 336.084,177.609 334.5,180.5C 333.957,180.44 333.624,180.107 333.5,179.5C 334.877,177.711 335.877,175.711 336.5,173.5C 336.03,172.537 335.363,172.537 334.5,173.5C 336.725,169.765 339.558,166.432 343,163.5C 344.275,161.283 345.275,158.949 346,156.5C 347.271,155.117 348.771,154.117 350.5,153.5 Z"/></g>
<g><path style="opacity:1" fill="#dca627" d="M 341.5,148.5 C 338.152,156.887 334.819,165.22 331.5,173.5C 331.587,170.402 331.087,170.068 330,172.5C 329.601,172.272 329.435,171.938 329.5,171.5C 330.698,168.574 331.698,165.574 332.5,162.5C 334.81,158.353 336.976,154.02 339,149.5C 339.671,148.748 340.504,148.414 341.5,148.5 Z"/></g>
<g><path style="opacity:1" fill="#d9a626" d="M 312.5,176.5 C 311.752,178.735 310.919,178.402 310,175.5C 309.768,176.737 309.268,177.737 308.5,178.5C 305.213,168.512 301.546,158.679 297.5,149C 297.833,148.5 298.167,148 298.5,147.5C 303.235,157.205 307.902,166.872 312.5,176.5 Z"/></g>
<g><path style="opacity:1" fill="#e1aa2e" d="M 321.5,175.5 C 320.612,173.967 320.112,171.634 320,168.5C 319.062,171.451 318.228,173.784 317.5,175.5C 317.768,164.81 318.435,154.144 319.5,143.5C 320.683,154.135 321.35,164.802 321.5,175.5 Z"/></g>
<g><path style="opacity:1" fill="#d6a425" d="M 303.5,180.5 C 304.061,182.066 303.394,183.399 301.5,184.5C 294.952,176.742 287.952,169.408 280.5,162.5C 280.517,160.972 281.184,160.472 282.5,161C 289.532,167.507 296.532,174.007 303.5,180.5 Z"/></g>
<g><path style="opacity:1" fill="#d5a329" d="M 307.5,178.5 C 306.317,178.156 305.484,178.822 305,180.5C 304.617,179.944 304.117,179.611 303.5,179.5C 299.372,174.913 296.539,169.58 295,163.5C 293.333,161.833 291.667,160.167 290,158.5C 289.421,152.02 290.088,152.02 292,158.5C 297.214,161.381 300.547,165.715 302,171.5C 304.43,173.422 306.263,175.755 307.5,178.5 Z"/></g>
<g><path style="opacity:1" fill="#ede5e2" d="M 273.5,169.5 C 275.909,172.885 279.243,175.051 283.5,176C 287.522,181.199 292.522,185.032 298.5,187.5C 298.5,187.833 298.5,188.167 298.5,188.5C 288.741,185.587 279.408,181.92 270.5,177.5C 273.797,177.671 274.131,177.005 271.5,175.5C 272.747,173.677 273.414,171.677 273.5,169.5 Z"/></g>
<g><path style="opacity:1" fill="#e9dedc" d="M 280.5,162.5 C 287.952,169.408 294.952,176.742 301.5,184.5C 301.167,184.5 300.833,184.5 300.5,184.5C 294.997,182.581 290.33,179.414 286.5,175C 283.691,173.907 281.024,172.74 278.5,171.5C 279.978,171.762 281.311,171.429 282.5,170.5C 282.597,168.166 281.597,166 279.5,164C 280.056,163.617 280.389,163.117 280.5,162.5 Z"/></g>
<g><path style="opacity:1" fill="#b88227" d="M 326.5,175.5 C 327.469,174.797 328.469,173.463 329.5,171.5C 329.435,171.938 329.601,172.272 330,172.5C 331.087,170.068 331.587,170.402 331.5,173.5C 331.185,175.226 331.019,176.893 331,178.5C 332.189,176.767 333.356,175.1 334.5,173.5C 335.363,172.537 336.03,172.537 336.5,173.5C 335.877,175.711 334.877,177.711 333.5,179.5C 333.624,180.107 333.957,180.44 334.5,180.5C 334.5,180.833 334.5,181.167 334.5,181.5C 335.793,182.645 336.959,182.311 338,180.5C 338.464,181.094 338.631,181.761 338.5,182.5C 338.5,183.167 338.167,183.5 337.5,183.5C 336.153,184.028 334.819,184.195 333.5,184C 331.507,182.001 329.173,180.501 326.5,179.5C 325.749,178.624 325.249,177.624 325,176.5C 321.851,178.362 318.351,179.029 314.5,178.5C 314.457,174.107 314.957,173.774 316,177.5C 316.464,176.906 316.631,176.239 316.5,175.5C 316.833,175.5 317.167,175.5 317.5,175.5C 318.228,173.784 319.062,171.451 320,168.5C 320.112,171.634 320.612,173.967 321.5,175.5C 321.833,175.5 322.167,175.5 322.5,175.5C 322.369,176.239 322.536,176.906 323,177.5C 323.945,173.886 324.612,170.219 325,166.5C 325.181,169.695 325.681,172.695 326.5,175.5 Z"/></g>
<g><path style="opacity:1" fill="#d7a822" d="M 338.5,182.5 C 338.631,181.761 338.464,181.094 338,180.5C 336.959,182.311 335.793,182.645 334.5,181.5C 341.945,174.274 349.612,167.274 357.5,160.5C 358.521,161.002 358.688,161.668 358,162.5C 351.714,169.434 345.214,176.101 338.5,182.5 Z"/></g>
<g><path style="opacity:1" fill="#d7a621" d="M 273.5,169.5 C 273.56,168.957 273.893,168.624 274.5,168.5C 275.642,169.826 276.976,170.826 278.5,171.5C 281.024,172.74 283.691,173.907 286.5,175C 290.33,179.414 294.997,182.581 300.5,184.5C 298.709,185.228 298.042,186.228 298.5,187.5C 292.522,185.032 287.522,181.199 283.5,176C 279.243,175.051 275.909,172.885 273.5,169.5 Z"/></g>
<g><path style="opacity:1" fill="#d4a127" d="M 345.5,190.5 C 343.86,191.32 342.193,192.153 340.5,193C 341.448,193.483 342.448,193.649 343.5,193.5C 342.791,194.404 341.791,194.737 340.5,194.5C 339.775,191.231 338.108,188.398 335.5,186C 336.044,185.283 336.711,184.783 337.5,184.5C 340.794,182.842 343.794,180.676 346.5,178C 352.577,177.463 357.244,174.629 360.5,169.5C 362.516,168.294 364.516,168.294 366.5,169.5C 361.836,170.992 358.169,173.825 355.5,178C 349.705,180.126 344.705,183.46 340.5,188C 350.049,184.646 359.716,181.146 369.5,177.5C 369.833,177.833 370.167,178.167 370.5,178.5C 362.556,183.262 354.223,187.262 345.5,190.5 Z"/></g>
<g><path style="opacity:1" fill="#d9a427" d="M 270.5,177.5 C 279.408,181.92 288.741,185.587 298.5,188.5C 297.737,189.268 296.737,189.768 295.5,190C 298.402,190.919 298.735,191.752 296.5,192.5C 286.914,188.374 277.581,183.707 268.5,178.5C 268.957,177.702 269.624,177.369 270.5,177.5 Z"/></g>
<g><path style="opacity:1" fill="#ab7329" d="M 312.5,176.5 C 313.404,177.209 313.737,178.209 313.5,179.5C 308.768,180.71 304.934,183.377 302,187.5C 300.441,189.217 299.608,191.217 299.5,193.5C 298.209,193.737 297.209,193.404 296.5,192.5C 298.735,191.752 298.402,190.919 295.5,190C 296.737,189.768 297.737,189.268 298.5,188.5C 298.5,188.167 298.5,187.833 298.5,187.5C 298.042,186.228 298.709,185.228 300.5,184.5C 300.833,184.5 301.167,184.5 301.5,184.5C 303.394,183.399 304.061,182.066 303.5,180.5C 303.5,180.167 303.5,179.833 303.5,179.5C 304.117,179.611 304.617,179.944 305,180.5C 305.484,178.822 306.317,178.156 307.5,178.5C 307.833,178.5 308.167,178.5 308.5,178.5C 309.268,177.737 309.768,176.737 310,175.5C 310.919,178.402 311.752,178.735 312.5,176.5 Z"/></g>
<g><path style="opacity:1" fill="#c19d70" d="M 373.5,188.5 C 374.043,188.56 374.376,188.893 374.5,189.5C 372.257,190.474 369.924,190.808 367.5,190.5C 369.5,189.833 371.5,189.167 373.5,188.5 Z"/></g>
<g><path style="opacity:1" fill="#dca726" d="M 373.5,188.5 C 371.5,189.167 369.5,189.833 367.5,190.5C 365.77,191.026 364.436,192.026 363.5,193.5C 357.364,193.177 351.364,193.844 345.5,195.5C 345.918,194.778 346.584,194.278 347.5,194C 346.207,193.51 344.873,193.343 343.5,193.5C 344.5,192.833 345.5,192.167 346.5,191.5C 354.371,191.249 362.037,189.916 369.5,187.5C 370.849,187.846 372.183,188.179 373.5,188.5 Z"/></g>
<g><path style="opacity:1" fill="#ba8f74" d="M 345.5,190.5 C 345.5,191.167 345.833,191.5 346.5,191.5C 345.5,192.167 344.5,192.833 343.5,193.5C 342.448,193.649 341.448,193.483 340.5,193C 342.193,192.153 343.86,191.32 345.5,190.5 Z"/></g>
<g><path style="opacity:1" fill="#dfa726" d="M 296.5,192.5 C 297.209,193.404 298.209,193.737 299.5,193.5C 299.5,194.167 299.167,194.5 298.5,194.5C 294.51,193.81 290.51,193.643 286.5,194C 290.186,194.559 293.853,195.226 297.5,196C 296.906,196.464 296.239,196.631 295.5,196.5C 289.544,197.125 284.211,195.625 279.5,192C 275.833,191.667 272.167,191.333 268.5,191C 266.096,190.492 265.429,189.325 266.5,187.5C 272.802,188.841 279.136,190.341 285.5,192C 289.152,192.499 292.818,192.665 296.5,192.5 Z"/></g>
<g><path style="opacity:1" fill="#e2d5d1" d="M 363.5,193.5 C 361.884,194.989 359.884,195.989 357.5,196.5C 362.985,197.167 368.319,197.833 373.5,198.5C 363.488,198.447 353.488,198.113 343.5,197.5C 344.167,196.833 344.833,196.167 345.5,195.5C 351.364,193.844 357.364,193.177 363.5,193.5 Z"/></g>
<g><path style="opacity:1" fill="#e6ab25" d="M 343.5,197.5 C 353.488,198.113 363.488,198.447 373.5,198.5C 374.376,198.369 375.043,198.702 375.5,199.5C 364.86,200.621 354.194,201.288 343.5,201.5C 344.681,200.603 346.681,200.103 349.5,200C 346.767,199.224 344.767,198.39 343.5,197.5 Z"/></g>
<g><path style="opacity:1" fill="#dca632" d="M 295.5,197.5 C 295.07,198.421 293.736,198.921 291.5,199C 293.551,199.815 294.884,200.648 295.5,201.5C 252.842,200.168 252.842,198.835 295.5,197.5 Z"/></g>
<g><path style="opacity:1" fill="#d8a22a" d="M 295.5,202.5 C 298.097,202.721 298.097,203.221 295.5,204C 296.167,204.333 296.833,204.667 297.5,205C 296.584,205.278 295.918,205.778 295.5,206.5C 288.954,208.041 282.287,208.874 275.5,209C 271.851,211.91 268.185,212.076 264.5,209.5C 274.672,206.673 285.005,204.34 295.5,202.5 Z"/></g>
<g><path style="opacity:1" fill="#c28826" d="M 343.5,193.5 C 344.873,193.343 346.207,193.51 347.5,194C 346.584,194.278 345.918,194.778 345.5,195.5C 344.833,196.167 344.167,196.833 343.5,197.5C 344.767,198.39 346.767,199.224 349.5,200C 346.681,200.103 344.681,200.603 343.5,201.5C 346.986,202.533 350.653,203.367 354.5,204C 355.571,204.852 356.571,205.685 357.5,206.5C 355.302,206.409 354.969,207.075 356.5,208.5C 352.028,206.784 347.362,206.118 342.5,206.5C 340.265,207.248 340.598,208.081 343.5,209C 342.263,209.232 341.263,209.732 340.5,210.5C 340.5,210.833 340.5,211.167 340.5,211.5C 339.262,211.81 339.262,212.31 340.5,213C 339.551,213.617 338.718,213.451 338,212.5C 337.536,213.094 337.369,213.761 337.5,214.5C 336.833,214.167 336.167,213.833 335.5,213.5C 339.799,207.924 341.466,201.591 340.5,194.5C 341.791,194.737 342.791,194.404 343.5,193.5 Z"/></g>
<g><path style="opacity:1" fill="#f9b81d" d="M 337.5,183.5 C 337.5,183.833 337.5,184.167 337.5,184.5C 336.711,184.783 336.044,185.283 335.5,186C 338.108,188.398 339.775,191.231 340.5,194.5C 341.466,201.591 339.799,207.924 335.5,213.5C 333.5,214.833 331.833,216.5 330.5,218.5C 325.303,220.087 319.969,220.754 314.5,220.5C 314.737,221.791 314.404,222.791 313.5,223.5C 313.5,222.167 313.5,220.833 313.5,219.5C 311.315,219.296 309.315,218.63 307.5,217.5C 306.833,216.167 305.833,215.167 304.5,214.5C 299.424,208.883 297.424,202.216 298.5,194.5C 299.167,194.5 299.5,194.167 299.5,193.5C 299.608,191.217 300.441,189.217 302,187.5C 304.934,183.377 308.768,180.71 313.5,179.5C 314.167,179.5 314.5,179.167 314.5,178.5C 318.351,179.029 321.851,178.362 325,176.5C 325.249,177.624 325.749,178.624 326.5,179.5C 329.173,180.501 331.507,182.001 333.5,184C 334.819,184.195 336.153,184.028 337.5,183.5 Z"/></g>
<g><path style="opacity:1" fill="#c27f22" d="M 324.5,189.5 C 332.31,190.797 331.976,191.631 323.5,192C 321.522,194.497 321.022,197.331 322,200.5C 322.71,201.973 323.876,202.64 325.5,202.5C 325.778,204.346 325.111,205.68 323.5,206.5C 320.833,206.5 318.167,206.5 315.5,206.5C 314.5,206.167 313.833,205.5 313.5,204.5C 316.665,204.449 319.998,204.282 323.5,204C 321.248,202.913 319.915,201.079 319.5,198.5C 316.66,203.747 315.993,203.414 317.5,197.5C 317.674,195.307 317.007,193.473 315.5,192C 317.409,191.552 318.576,192.385 319,194.5C 320.73,192.598 322.563,190.931 324.5,189.5 Z"/></g>
<g><path style="opacity:1" fill="#a26422" d="M 324.5,193.5 C 327.807,193.063 330.807,193.73 333.5,195.5C 331.572,199.169 328.572,200.336 324.5,199C 323.833,198 323.167,197 322.5,196C 323.381,195.292 324.047,194.458 324.5,193.5 Z"/></g>
<g><path style="opacity:1" fill="#aa6d22" d="M 307.5,193.5 C 310.983,192.916 313.983,193.749 316.5,196C 314.459,199.362 311.459,200.362 307.5,199C 306.833,198 306.167,197 305.5,196C 306.381,195.292 307.047,194.458 307.5,193.5 Z"/></g>
<g><path style="opacity:1" fill="#e7b321" d="M 357.5,206.5 C 361.785,207.208 366.118,207.708 370.5,208C 372.904,208.508 373.571,209.675 372.5,211.5C 371.692,211.192 371.025,210.692 370.5,210C 365.649,209.826 360.982,209.326 356.5,208.5C 354.969,207.075 355.302,206.409 357.5,206.5 Z"/></g>
<g><path style="opacity:1" fill="#b47520" d="M 316.5,207.5 C 318.205,208.535 319.872,208.535 321.5,207.5C 322.833,208.5 324.167,209.5 325.5,210.5C 322.7,213.404 319.366,214.904 315.5,215C 317.839,212.731 317.172,211.231 313.5,210.5C 314.77,209.712 315.77,208.712 316.5,207.5 Z"/></g>
<g><path style="opacity:1" fill="#ad7328" d="M 298.5,194.5 C 297.424,202.216 299.424,208.883 304.5,214.5C 304.631,215.376 304.298,216.043 303.5,216.5C 302.818,215.757 302.151,215.091 301.5,214.5C 300.833,214.5 300.167,214.5 299.5,214.5C 297.158,214.225 297.158,213.392 299.5,212C 299.272,211.601 298.938,211.435 298.5,211.5C 298.5,211.167 298.5,210.833 298.5,210.5C 297.737,209.732 296.737,209.232 295.5,209C 296.672,208.581 297.672,207.915 298.5,207C 297.423,206.53 296.423,206.697 295.5,207.5C 295.5,207.167 295.5,206.833 295.5,206.5C 295.918,205.778 296.584,205.278 297.5,205C 296.833,204.667 296.167,204.333 295.5,204C 298.097,203.221 298.097,202.721 295.5,202.5C 295.5,202.167 295.5,201.833 295.5,201.5C 294.884,200.648 293.551,199.815 291.5,199C 293.736,198.921 295.07,198.421 295.5,197.5C 295.5,197.167 295.5,196.833 295.5,196.5C 296.239,196.631 296.906,196.464 297.5,196C 293.853,195.226 290.186,194.559 286.5,194C 290.51,193.643 294.51,193.81 298.5,194.5 Z"/></g>
<g><path style="opacity:1" fill="#daa62b" d="M 298.5,210.5 C 288.725,213.794 279.058,217.46 269.5,221.5C 268.289,220.726 268.289,219.893 269.5,219C 278.04,214.98 286.707,211.147 295.5,207.5C 296.423,206.697 297.423,206.53 298.5,207C 297.672,207.915 296.672,208.581 295.5,209C 296.737,209.232 297.737,209.732 298.5,210.5 Z"/></g>
<g><path style="opacity:1" fill="#dba927" d="M 342.5,206.5 C 380.183,224.153 379.517,225.487 340.5,210.5C 341.263,209.732 342.263,209.232 343.5,209C 340.598,208.081 340.265,207.248 342.5,206.5 Z"/></g>
<g><path style="opacity:1" fill="#d8a530" d="M 298.5,211.5 C 298.938,211.435 299.272,211.601 299.5,212C 297.158,213.392 297.158,214.225 299.5,214.5C 295.323,219.429 289.99,222.596 283.5,224C 281.833,225.667 280.167,227.333 278.5,229C 276.833,229.667 275.167,229.667 273.5,229C 274.872,228.598 276.205,228.098 277.5,227.5C 280.974,221.865 285.974,218.365 292.5,217C 294.37,214.96 296.37,213.127 298.5,211.5 Z"/></g>
<g><path style="opacity:1" fill="#a46c2a" d="M 307.5,217.5 C 309.315,218.63 311.315,219.296 313.5,219.5C 313.5,220.833 313.5,222.167 313.5,223.5C 313.167,223.5 312.833,223.5 312.5,223.5C 312.167,223.5 311.833,223.5 311.5,223.5C 312.303,222.577 312.47,221.577 312,220.5C 311.085,221.328 310.419,222.328 310,223.5C 309.768,222.263 309.268,221.263 308.5,220.5C 308.167,220.5 307.833,220.5 307.5,220.5C 306.867,220.12 306.2,219.787 305.5,219.5C 305.855,218.478 306.522,217.811 307.5,217.5 Z"/></g>
<g><path style="opacity:1" fill="#d5a325" d="M 335.5,213.5 C 336.167,213.833 336.833,214.167 337.5,214.5C 344.847,221.847 351.847,229.514 358.5,237.5C 357.998,238.521 357.332,238.688 356.5,238C 349.046,231.513 341.879,224.68 335,217.5C 334.333,218.167 334.333,218.833 335,219.5C 337.237,221.647 339.237,223.98 341,226.5C 341.442,232.055 343.942,236.388 348.5,239.5C 349.793,241.636 349.793,243.636 348.5,245.5C 348.418,241.415 346.418,238.748 342.5,237.5C 340.027,230.703 336.027,225.037 330.5,220.5C 330.5,219.833 330.5,219.167 330.5,218.5C 331.833,216.5 333.5,214.833 335.5,213.5 Z"/></g>
<g><path style="opacity:1" fill="#dcaa24" d="M 340.5,211.5 C 346.478,213.968 351.478,217.801 355.5,223C 360.214,223.383 363.547,225.717 365.5,230C 362.151,227.456 358.151,225.789 353.5,225C 349.078,220.072 343.744,216.572 337.5,214.5C 337.369,213.761 337.536,213.094 338,212.5C 338.718,213.451 339.551,213.617 340.5,213C 339.262,212.31 339.262,211.81 340.5,211.5 Z"/></g>
<g><path style="opacity:1" fill="#b77f29" d="M 330.5,218.5 C 330.5,219.167 330.5,219.833 330.5,220.5C 329.732,221.263 329.232,222.263 329,223.5C 328.081,220.598 327.248,220.265 326.5,222.5C 325.637,221.537 324.97,221.537 324.5,222.5C 325.485,224.098 325.651,225.765 325,227.5C 324.722,226.584 324.222,225.918 323.5,225.5C 322.833,224.833 322.167,224.167 321.5,223.5C 320.739,224.866 319.906,226.866 319,229.5C 318.897,226.681 318.397,224.681 317.5,223.5C 316.833,226.5 316.167,229.5 315.5,232.5C 315.328,223.19 314.828,223.19 314,232.5C 313.502,229.518 313.335,226.518 313.5,223.5C 314.404,222.791 314.737,221.791 314.5,220.5C 319.969,220.754 325.303,220.087 330.5,218.5 Z"/></g>
<g><path style="opacity:1" fill="#d6a523" d="M 301.5,214.5 C 302.151,215.091 302.818,215.757 303.5,216.5C 304.298,216.043 304.631,215.376 304.5,214.5C 305.833,215.167 306.833,216.167 307.5,217.5C 306.522,217.811 305.855,218.478 305.5,219.5C 306.2,219.787 306.867,220.12 307.5,220.5C 305.032,226.478 301.199,231.478 296,235.5C 294.919,239.812 292.586,243.145 289,245.5C 288.833,245.167 288.667,244.833 288.5,244.5C 291.504,241.505 293.171,237.838 293.5,233.5C 299.285,229.58 302.785,224.247 304,217.5C 299.605,222.064 295.105,226.398 290.5,230.5C 287.52,233.144 284.52,235.811 281.5,238.5C 280.479,237.998 280.312,237.332 281,236.5C 287.672,228.996 294.505,221.662 301.5,214.5 Z"/></g>
<g><path style="opacity:1" fill="#e5d8d6" d="M 293.5,233.5 C 293.5,232.5 293.5,231.5 293.5,230.5C 292.5,230.5 291.5,230.5 290.5,230.5C 295.105,226.398 299.605,222.064 304,217.5C 302.785,224.247 299.285,229.58 293.5,233.5 Z"/></g>
<g><path style="opacity:1" fill="#e3d6d4" d="M 321.5,223.5 C 322.167,224.167 322.833,224.833 323.5,225.5C 325.087,230.696 325.754,236.03 325.5,241.5C 324.442,240.4 323.608,239.066 323,237.5C 322.039,243.288 321.205,248.955 320.5,254.5C 320.649,244.159 320.982,233.826 321.5,223.5 Z"/></g>
<g><path style="opacity:1" fill="#e6dbd5" d="M 311.5,223.5 C 311.833,223.5 312.167,223.5 312.5,223.5C 310.7,232.519 309.367,241.519 308.5,250.5C 308.666,246.154 308.499,241.821 308,237.5C 307.23,236.402 306.397,236.402 305.5,237.5C 307.503,232.829 309.503,228.162 311.5,223.5 Z"/></g>
<g><path style="opacity:1" fill="#ebe3e1" d="M 317.5,223.5 C 317.99,233.494 318.323,243.494 318.5,253.5C 316.964,251.975 315.964,249.975 315.5,247.5C 314.476,248.853 313.143,249.52 311.5,249.5C 310.683,243.277 312.016,237.61 315.5,232.5C 316.167,229.5 316.833,226.5 317.5,223.5 Z"/></g>
<g><path style="opacity:1" fill="#ede5e2" d="M 330.5,220.5 C 336.027,225.037 340.027,230.703 342.5,237.5C 346.418,238.748 348.418,241.415 348.5,245.5C 347.069,244.097 345.902,242.431 345,240.5C 344.028,242.305 342.861,243.972 341.5,245.5C 341.977,246.478 342.643,247.311 343.5,248C 342.934,248.995 342.267,249.828 341.5,250.5C 337.44,240.654 333.773,230.654 330.5,220.5 Z"/></g>
<g><path style="opacity:1" fill="#ddaa26" d="M 308.5,220.5 C 309.268,221.263 309.768,222.263 310,223.5C 310.419,222.328 311.085,221.328 312,220.5C 312.47,221.577 312.303,222.577 311.5,223.5C 309.503,228.162 307.503,232.829 305.5,237.5C 303.328,241.308 301.328,245.308 299.5,249.5C 298.833,250.833 298.167,250.833 297.5,249.5C 300.974,239.743 304.641,230.076 308.5,220.5 Z"/></g>
<g><path style="opacity:1" fill="#e6aa27" d="M 321.5,223.5 C 320.982,233.826 320.649,244.159 320.5,254.5C 319.377,255.757 318.711,255.424 318.5,253.5C 318.323,243.494 317.99,233.494 317.5,223.5C 318.397,224.681 318.897,226.681 319,229.5C 319.906,226.866 320.739,224.866 321.5,223.5 Z"/></g>
<g><path style="opacity:1" fill="#e3ac1e" d="M 312.5,223.5 C 312.833,223.5 313.167,223.5 313.5,223.5C 313.335,226.518 313.502,229.518 314,232.5C 314.828,223.19 315.328,223.19 315.5,232.5C 312.016,237.61 310.683,243.277 311.5,249.5C 310.984,251.2 309.984,252.533 308.5,253.5C 307.438,252.575 307.438,251.575 308.5,250.5C 309.367,241.519 310.7,232.519 312.5,223.5 Z"/></g>
<g><path style="opacity:1" fill="#dca924" d="M 326.5,222.5 C 328.06,229.362 328.893,236.362 329,243.5C 331.434,246.561 331.934,249.895 330.5,253.5C 329.833,251.5 329.167,249.5 328.5,247.5C 327.5,245.5 326.5,243.5 325.5,241.5C 325.754,236.03 325.087,230.696 323.5,225.5C 324.222,225.918 324.722,226.584 325,227.5C 325.651,225.765 325.485,224.098 324.5,222.5C 324.97,221.537 325.637,221.537 326.5,222.5 Z"/></g>
<g><path style="opacity:1" fill="#daa826" d="M 330.5,220.5 C 333.773,230.654 337.44,240.654 341.5,250.5C 340.624,250.631 339.957,250.298 339.5,249.5C 335.392,240.287 331.059,231.287 326.5,222.5C 327.248,220.265 328.081,220.598 329,223.5C 329.232,222.263 329.732,221.263 330.5,220.5 Z"/></g>
<g><path style="opacity:1" fill="#bc9d6f" d="M 328.5,247.5 C 329.167,249.5 329.833,251.5 330.5,253.5C 330.44,254.043 330.107,254.376 329.5,254.5C 328.526,252.257 328.192,249.924 328.5,247.5 Z"/></g>
<g><path style="opacity:1" fill="#6bace4" d="M -0.5,265.5 C 212.833,265.5 426.167,265.5 639.5,265.5C 639.5,310.167 639.5,354.833 639.5,399.5C 426.167,399.5 212.833,399.5 -0.5,399.5C -0.5,354.833 -0.5,310.167 -0.5,265.5 Z"/></g>
</svg>
