<?xml version="1.0" encoding="UTF-8"?>
<!DOCTYPE svg PUBLIC "-//W3C//DTD SVG 1.1//EN" "http://www.w3.org/Graphics/SVG/1.1/DTD/svg11.dtd">
<svg xmlns="http://www.w3.org/2000/svg" version="1.1" width="615px" height="410px" style="shape-rendering:geometricPrecision; text-rendering:geometricPrecision; image-rendering:optimizeQuality; fill-rule:evenodd; clip-rule:evenodd" xmlns:xlink="http://www.w3.org/1999/xlink">
<g><path style="opacity:1" fill="#0b0b0b" d="M -0.5,-0.5 C 204.5,-0.5 409.5,-0.5 614.5,-0.5C 614.5,42.8333 614.5,86.1667 614.5,129.5C 409.497,128.188 204.497,128.188 -0.5,129.5C -0.5,86.1667 -0.5,42.8333 -0.5,-0.5 Z"/></g>
<g><path style="opacity:1" fill="#090e0b" d="M 614.5,129.5 C 614.5,129.833 614.5,130.167 614.5,130.5C 409.5,130.5 204.5,130.5 -0.5,130.5C -0.5,130.167 -0.5,129.833 -0.5,129.5C 204.497,128.188 409.497,128.188 614.5,129.5 Z"/></g>
<g><path style="opacity:1" fill="#120909" d="M -0.5,130.5 C 204.5,130.5 409.5,130.5 614.5,130.5C 614.5,131.167 614.5,131.833 614.5,132.5C 409.5,132.5 204.5,132.5 -0.5,132.5C -0.5,131.833 -0.5,131.167 -0.5,130.5 Z"/></g>
<g><path style="opacity:1" fill="#0e0e0d" d="M -0.5,132.5 C 204.5,132.5 409.5,132.5 614.5,132.5C 614.5,133.5 614.5,134.5 614.5,135.5C 409.5,135.5 204.5,135.5 -0.5,135.5C -0.5,134.5 -0.5,133.5 -0.5,132.5 Z"/></g>
<g><path style="opacity:1" fill="#b80b0b" d="M 575.5,137.5 C 575.5,137.167 575.5,136.833 575.5,136.5C 588.5,136.5 601.5,136.5 614.5,136.5C 614.5,181.833 614.5,227.167 614.5,272.5C 601.5,272.5 588.5,272.5 575.5,272.5C 575.5,272.167 575.5,271.833 575.5,271.5C 575.833,271.5 576.167,271.5 576.5,271.5C 580.167,271.5 583.833,271.5 587.5,271.5C 589.833,271.5 592.167,271.5 594.5,271.5C 597.167,271.5 599.833,271.5 602.5,271.5C 605.681,271.998 608.347,271.165 610.5,269C 610.281,259.561 610.281,250.061 610.5,240.5C 609.975,239.808 609.308,239.308 608.5,239C 609.894,238.044 610.561,236.711 610.5,235C 609.203,230.495 609.203,225.995 610.5,221.5C 610.182,220.353 609.516,219.519 608.5,219C 611.167,217.667 611.167,216.333 608.5,215C 609.308,214.692 609.975,214.192 610.5,213.5C 609.167,212.5 609.167,211.5 610.5,210.5C 610.023,209.522 609.357,208.689 608.5,208C 611.094,205.928 611.094,203.761 608.5,201.5C 609.663,199.715 610.33,197.715 610.5,195.5C 610.313,191.544 609.646,187.711 608.5,184C 609.771,181.446 610.438,178.613 610.5,175.5C 610.438,172.387 609.771,169.554 608.5,167C 609.308,166.692 609.975,166.192 610.5,165.5C 609.167,164.5 609.167,163.5 610.5,162.5C 610.023,161.522 609.357,160.689 608.5,160C 610.991,159.374 610.991,158.541 608.5,157.5C 609.167,156.833 609.833,156.167 610.5,155.5C 609.289,152.045 609.289,148.545 610.5,145C 609.429,144.148 608.429,143.315 607.5,142.5C 606.637,141.06 606.637,139.726 607.5,138.5C 603.217,137.508 598.884,137.174 594.5,137.5C 588.167,137.5 581.833,137.5 575.5,137.5 Z"/></g>
<g><path style="opacity:1" fill="#e40b0c" d="M 559.5,140.5 C 560.376,140.369 561.043,140.702 561.5,141.5C 555.537,142.496 549.537,142.829 543.5,142.5C 396.832,142.833 250.165,142.5 103.5,141.5C 207.872,140.169 312.205,140.169 416.5,141.5C 457.135,140.81 497.802,140.144 538.5,139.5C 545.479,140.29 552.479,140.624 559.5,140.5 Z"/></g>
<g><path style="opacity:1" fill="#cb0a0e" d="M 591.5,140.5 C 593.604,140.201 595.604,140.534 597.5,141.5C 596.271,142.281 594.938,142.781 593.5,143C 595.221,185.779 595.554,228.612 594.5,271.5C 592.167,271.5 589.833,271.5 587.5,271.5C 586.538,243.204 586.538,215.371 587.5,188C 586.545,181.194 585.878,174.36 585.5,167.5C 585.562,164.387 586.229,161.554 587.5,159C 586.416,154.462 586.416,149.629 587.5,144.5C 585.922,143.702 584.256,143.202 582.5,143C 585.797,142.796 588.797,141.963 591.5,140.5 Z"/></g>
<g><path style="opacity:1" fill="#ca0a0d" d="M 20.5,137.5 C 24.1667,137.5 27.8333,137.5 31.5,137.5C 32.9516,138.302 34.6183,138.802 36.5,139C 32.5314,139.853 28.5314,140.519 24.5,141C 28.2968,142.424 32.2968,142.924 36.5,142.5C 34.0314,143.317 31.3647,143.817 28.5,144C 31.028,145.017 31.028,146.184 28.5,147.5C 31.1667,148.833 31.1667,150.167 28.5,151.5C 31.028,152.517 31.028,153.684 28.5,155C 30.8912,155.691 30.8912,156.691 28.5,158C 31.028,159.017 31.028,160.184 28.5,161.5C 31.1667,162.833 31.1667,164.167 28.5,165.5C 29.0253,166.192 29.6919,166.692 30.5,167C 27.972,168.017 27.972,169.184 30.5,170.5C 28.567,173.095 28.567,175.428 30.5,177.5C 29.8333,178.167 29.1667,178.833 28.5,179.5C 28.8624,183.512 29.5291,187.678 30.5,192C 29.6919,192.308 29.0253,192.808 28.5,193.5C 29.0933,195.382 29.7599,197.215 30.5,199C 29.8333,204.667 29.1667,210.333 28.5,216C 29.1667,216.667 29.8333,217.333 30.5,218C 29.572,218.388 28.9054,219.055 28.5,220C 29.4239,221.15 29.4239,222.15 28.5,223C 29.3081,223.308 29.9747,223.808 30.5,224.5C 29.4563,225.623 28.7896,226.956 28.5,228.5C 29.1567,230.472 29.1567,232.305 28.5,234C 30.7811,235.851 30.7811,237.518 28.5,239C 31.1667,239.667 31.1667,240.333 28.5,241C 30.8912,242.309 30.8912,243.309 28.5,244C 31.028,245.316 31.028,246.483 28.5,247.5C 29.1667,248.167 29.8333,248.833 30.5,249.5C 27.8333,251.833 27.8333,254.167 30.5,256.5C 27.972,257.816 27.972,258.983 30.5,260C 27.972,261.017 27.972,262.184 30.5,263.5C 29.6072,266.084 29.2739,268.751 29.5,271.5C 26.8333,271.5 24.1667,271.5 21.5,271.5C 22.1455,253.097 21.4789,234.93 19.5,217C 21.4846,192.729 22.1513,168.229 21.5,143.5C 22.552,143.649 23.552,143.483 24.5,143C 21.1489,142.943 18.1489,142.109 15.5,140.5C 18.9099,140.543 22.2432,140.043 25.5,139C 23.6183,138.802 21.9516,138.302 20.5,137.5 Z"/></g>
<g><path style="opacity:1" fill="#a6090b" d="M -0.5,135.5 C 204.5,135.5 409.5,135.5 614.5,135.5C 614.5,135.833 614.5,136.167 614.5,136.5C 601.5,136.5 588.5,136.5 575.5,136.5C 393.999,136.167 212.666,136.5 31.5,137.5C 27.8333,137.5 24.1667,137.5 20.5,137.5C 15.8215,137.334 11.1548,137.501 6.5,138C 7.62402,138.249 8.62402,138.749 9.5,139.5C 7.37592,140.149 5.37592,140.983 3.5,142C 4.83333,142.333 6.16667,142.667 7.5,143C 5.50863,185.614 4.84197,228.448 5.5,271.5C 3.5,271.5 1.5,271.5 -0.5,271.5C -0.5,226.167 -0.5,180.833 -0.5,135.5 Z"/></g>
<g><path style="opacity:1" fill="#c41109" d="M 15.5,140.5 C 18.1489,142.109 21.1489,142.943 24.5,143C 23.552,143.483 22.552,143.649 21.5,143.5C 22.1513,168.229 21.4846,192.729 19.5,217C 21.4789,234.93 22.1455,253.097 21.5,271.5C 24.1667,271.5 26.8333,271.5 29.5,271.5C 32.8333,271.5 36.1667,271.5 39.5,271.5C 44.8333,271.5 50.1667,271.5 55.5,271.5C 60.5,271.5 65.5,271.5 70.5,271.5C 230.833,271.5 391.167,271.5 551.5,271.5C 555.833,271.5 560.167,271.5 564.5,271.5C 568.167,271.5 571.833,271.5 575.5,271.5C 575.5,271.833 575.5,272.167 575.5,272.5C 383.5,272.5 191.5,272.5 -0.5,272.5C -0.5,272.167 -0.5,271.833 -0.5,271.5C 1.5,271.5 3.5,271.5 5.5,271.5C 7.16667,271.5 8.83333,271.5 10.5,271.5C 10.3334,253.164 10.5001,234.83 11,216.5C 11.2172,211.696 12.0505,207.029 13.5,202.5C 12.3251,199.483 12.3251,196.483 13.5,193.5C 11.9312,191.348 11.4312,189.014 12,186.5C 12.887,191.727 13.387,191.56 13.5,186C 13.3333,184.5 13.1667,183 13,181.5C 12.0944,184.121 11.5944,183.954 11.5,181C 11.5944,178.046 12.0944,177.879 13,180.5C 13.6667,179.167 13.6667,177.833 13,176.5C 12.6667,176.833 12.3333,177.167 12,177.5C 11.3333,171.5 11.3333,165.5 12,159.5C 12.763,162.063 13.263,162.063 13.5,159.5C 13.5177,157.627 13.0177,157.294 12,158.5C 11.8333,156 11.6667,153.5 11.5,151C 11.5676,148.05 12.2343,145.383 13.5,143C 12.1667,142.667 10.8333,142.333 9.5,142C 11.2495,140.681 13.2495,140.181 15.5,140.5 Z"/></g>
<g><path style="opacity:1" fill="#d00a0d" d="M 36.5,142.5 C 41.1785,142.334 45.8452,142.501 50.5,143C 46.8484,143.499 43.1817,143.665 39.5,143.5C 39.9359,187.599 39.9359,230.265 39.5,271.5C 36.1667,271.5 32.8333,271.5 29.5,271.5C 29.2739,268.751 29.6072,266.084 30.5,263.5C 27.972,262.184 27.972,261.017 30.5,260C 27.972,258.983 27.972,257.816 30.5,256.5C 27.8333,254.167 27.8333,251.833 30.5,249.5C 29.8333,248.833 29.1667,248.167 28.5,247.5C 31.028,246.483 31.028,245.316 28.5,244C 30.8912,243.309 30.8912,242.309 28.5,241C 31.1667,240.333 31.1667,239.667 28.5,239C 30.7811,237.518 30.7811,235.851 28.5,234C 29.1567,232.305 29.1567,230.472 28.5,228.5C 28.7896,226.956 29.4563,225.623 30.5,224.5C 29.9747,223.808 29.3081,223.308 28.5,223C 29.4239,222.15 29.4239,221.15 28.5,220C 28.9054,219.055 29.572,218.388 30.5,218C 29.8333,217.333 29.1667,216.667 28.5,216C 29.1667,210.333 29.8333,204.667 30.5,199C 29.7599,197.215 29.0933,195.382 28.5,193.5C 29.0253,192.808 29.6919,192.308 30.5,192C 29.5291,187.678 28.8624,183.512 28.5,179.5C 29.1667,178.833 29.8333,178.167 30.5,177.5C 28.567,175.428 28.567,173.095 30.5,170.5C 27.972,169.184 27.972,168.017 30.5,167C 29.6919,166.692 29.0253,166.192 28.5,165.5C 31.1667,164.167 31.1667,162.833 28.5,161.5C 31.028,160.184 31.028,159.017 28.5,158C 30.8912,156.691 30.8912,155.691 28.5,155C 31.028,153.684 31.028,152.517 28.5,151.5C 31.1667,150.167 31.1667,148.833 28.5,147.5C 31.028,146.184 31.028,145.017 28.5,144C 31.3647,143.817 34.0314,143.317 36.5,142.5 Z"/></g>
<g><path style="opacity:1" fill="#c5090c" d="M 594.5,137.5 C 598.884,137.174 603.217,137.508 607.5,138.5C 606.637,139.726 606.637,141.06 607.5,142.5C 605.473,142.338 603.473,142.505 601.5,143C 602.079,185.622 602.412,228.455 602.5,271.5C 599.833,271.5 597.167,271.5 594.5,271.5C 595.554,228.612 595.221,185.779 593.5,143C 594.938,142.781 596.271,142.281 597.5,141.5C 595.604,140.534 593.604,140.201 591.5,140.5C 592.1,139.1 593.1,138.1 594.5,137.5 Z"/></g>
<g><path style="opacity:1" fill="#be090c" d="M 607.5,142.5 C 608.429,143.315 609.429,144.148 610.5,145C 609.289,148.545 609.289,152.045 610.5,155.5C 609.833,156.167 609.167,156.833 608.5,157.5C 610.991,158.541 610.991,159.374 608.5,160C 609.357,160.689 610.023,161.522 610.5,162.5C 609.167,163.5 609.167,164.5 610.5,165.5C 609.975,166.192 609.308,166.692 608.5,167C 609.771,169.554 610.438,172.387 610.5,175.5C 610.438,178.613 609.771,181.446 608.5,184C 609.646,187.711 610.313,191.544 610.5,195.5C 610.33,197.715 609.663,199.715 608.5,201.5C 611.094,203.761 611.094,205.928 608.5,208C 609.357,208.689 610.023,209.522 610.5,210.5C 609.167,211.5 609.167,212.5 610.5,213.5C 609.975,214.192 609.308,214.692 608.5,215C 611.167,216.333 611.167,217.667 608.5,219C 609.516,219.519 610.182,220.353 610.5,221.5C 609.203,225.995 609.203,230.495 610.5,235C 610.561,236.711 609.894,238.044 608.5,239C 609.308,239.308 609.975,239.808 610.5,240.5C 610.281,250.061 610.281,259.561 610.5,269C 608.347,271.165 605.681,271.998 602.5,271.5C 602.412,228.455 602.079,185.622 601.5,143C 603.473,142.505 605.473,142.338 607.5,142.5 Z"/></g>
<g><path style="opacity:1" fill="#d60c10" d="M 575.5,136.5 C 575.5,136.833 575.5,137.167 575.5,137.5C 571.833,137.5 568.167,137.5 564.5,137.5C 394.5,137.333 224.5,137.5 54.5,138C 57.5,138.333 60.5,138.667 63.5,139C 59.9015,140.014 56.2348,140.847 52.5,141.5C 61.4816,142.332 70.4816,142.832 79.5,143C 76.3054,143.181 73.3054,143.681 70.5,144.5C 65.5947,143.555 60.5947,143.221 55.5,143.5C 55.5,186.167 55.5,228.833 55.5,271.5C 50.1667,271.5 44.8333,271.5 39.5,271.5C 39.9359,230.265 39.9359,187.599 39.5,143.5C 43.1817,143.665 46.8484,143.499 50.5,143C 45.8452,142.501 41.1785,142.334 36.5,142.5C 32.2968,142.924 28.2968,142.424 24.5,141C 28.5314,140.519 32.5314,139.853 36.5,139C 34.6183,138.802 32.9516,138.302 31.5,137.5C 212.666,136.5 393.999,136.167 575.5,136.5 Z"/></g>
<g><path style="opacity:1" fill="#dd0b0e" d="M 70.5,144.5 C 70.5,149.167 70.5,153.833 70.5,158.5C 72.288,158.215 73.9547,158.548 75.5,159.5C 73.9936,160.747 72.4936,160.747 71,159.5C 70.5002,170.161 70.3335,180.828 70.5,191.5C 71.8734,191.343 73.2068,191.51 74.5,192C 73.1588,193.295 71.8255,193.795 70.5,193.5C 70.6697,197.318 70.6697,201.318 70.5,205.5C 72.4286,205.231 74.0953,205.731 75.5,207C 73.8876,207.72 72.3876,207.554 71,206.5C 70.5065,208.134 70.3398,209.801 70.5,211.5C 72.288,211.215 73.9547,211.548 75.5,212.5C 73.9936,213.747 72.4936,213.747 71,212.5C 71.1484,213.825 70.9817,214.992 70.5,216C 71.3279,216.915 72.3279,217.581 73.5,218C 72.7471,219.487 71.9138,219.654 71,218.5C 67.9327,223.149 69.0993,225.649 74.5,226C 73.0625,227.241 71.5625,227.741 70,227.5C 70.6509,229.946 70.4842,232.446 69.5,235C 69.8711,237.856 70.3711,240.689 71,243.5C 72.1131,244.711 73.2798,244.711 74.5,243.5C 75.4287,244.689 75.762,246.022 75.5,247.5C 73.8333,247.5 72.1667,247.5 70.5,247.5C 70.5,248.5 70.5,249.5 70.5,250.5C 72.288,250.215 73.9547,250.548 75.5,251.5C 73.9936,252.747 72.4936,252.747 71,251.5C 71.1287,254.739 70.962,257.906 70.5,261C 71.0535,262.551 71.7202,264.051 72.5,265.5C 72.5177,267.373 72.0177,267.706 71,266.5C 70.5065,268.134 70.3398,269.801 70.5,271.5C 65.5,271.5 60.5,271.5 55.5,271.5C 55.5,228.833 55.5,186.167 55.5,143.5C 60.5947,143.221 65.5947,143.555 70.5,144.5 Z"/></g>
<g><path style="opacity:1" fill="#dd0b0e" d="M 552.5,143.5 C 556.5,143.5 560.5,143.5 564.5,143.5C 563.832,186.177 563.832,228.844 564.5,271.5C 560.167,271.5 555.833,271.5 551.5,271.5C 551.5,267.167 551.5,262.833 551.5,258.5C 540.913,258.136 540.913,257.136 551.5,255.5C 549.357,252.17 546.857,251.836 544,254.5C 542.439,249.328 543.605,247.995 547.5,250.5C 548.748,249.96 549.915,249.293 551,248.5C 551.498,245.518 551.665,242.518 551.5,239.5C 550.448,239.649 549.448,239.483 548.5,239C 549.687,237.981 550.687,236.814 551.5,235.5C 548.833,234.833 546.167,234.167 543.5,233.5C 546.135,232.728 548.801,232.562 551.5,233C 551.833,232.667 552.167,232.333 552.5,232C 543.236,231.485 543.236,230.652 552.5,229.5C 549.562,228.511 546.562,227.844 543.5,227.5C 543.5,226.167 543.5,224.833 543.5,223.5C 545.492,223.328 547.158,223.995 548.5,225.5C 549.696,225.154 549.696,224.654 548.5,224C 549.448,223.517 550.448,223.351 551.5,223.5C 551.153,215.53 551.82,207.697 553.5,200C 552.419,195.934 551.752,191.767 551.5,187.5C 540.833,186.833 540.833,186.167 551.5,185.5C 551.5,183.5 551.5,181.5 551.5,179.5C 540.833,178.833 540.833,178.167 551.5,177.5C 551.5,174.833 551.5,172.167 551.5,169.5C 548.833,168.833 546.167,168.167 543.5,167.5C 543.5,166.5 543.5,165.5 543.5,164.5C 546.167,164.5 548.833,164.5 551.5,164.5C 551.5,163.5 551.5,162.5 551.5,161.5C 548.753,161.813 546.086,161.48 543.5,160.5C 545.851,157.598 548.684,156.931 552,158.5C 551.898,153.582 552.065,148.582 552.5,143.5 Z"/></g>
<g><path style="opacity:1" fill="#d70b0e" d="M 564.5,137.5 C 568.167,137.5 571.833,137.5 575.5,137.5C 574.737,138.268 573.737,138.768 572.5,139C 576.531,139.481 580.531,140.147 584.5,141C 579.25,142.174 573.916,142.841 568.5,143C 570.592,144.113 572.925,144.279 575.5,143.5C 575.5,148.833 575.5,154.167 575.5,159.5C 576.5,159.5 577.5,159.5 578.5,159.5C 577.612,172.812 576.945,186.145 576.5,199.5C 578.311,217.819 578.978,235.652 578.5,253C 576.726,259.029 576.059,265.195 576.5,271.5C 576.167,271.5 575.833,271.5 575.5,271.5C 571.833,271.5 568.167,271.5 564.5,271.5C 563.832,228.844 563.832,186.177 564.5,143.5C 560.5,143.5 556.5,143.5 552.5,143.5C 549.287,143.81 546.287,143.477 543.5,142.5C 549.537,142.829 555.537,142.496 561.5,141.5C 561.043,140.702 560.376,140.369 559.5,140.5C 560.802,138.972 562.469,137.972 564.5,137.5 Z"/></g>
<g><path style="opacity:1" fill="#d10a0d" d="M 575.5,137.5 C 581.833,137.5 588.167,137.5 594.5,137.5C 593.1,138.1 592.1,139.1 591.5,140.5C 588.797,141.963 585.797,142.796 582.5,143C 584.256,143.202 585.922,143.702 587.5,144.5C 586.416,149.629 586.416,154.462 587.5,159C 586.229,161.554 585.562,164.387 585.5,167.5C 585.878,174.36 586.545,181.194 587.5,188C 586.538,215.371 586.538,243.204 587.5,271.5C 583.833,271.5 580.167,271.5 576.5,271.5C 576.059,265.195 576.726,259.029 578.5,253C 578.978,235.652 578.311,217.819 576.5,199.5C 576.945,186.145 577.612,172.812 578.5,159.5C 577.5,159.5 576.5,159.5 575.5,159.5C 575.5,154.167 575.5,148.833 575.5,143.5C 572.925,144.279 570.592,144.113 568.5,143C 573.916,142.841 579.25,142.174 584.5,141C 580.531,140.147 576.531,139.481 572.5,139C 573.737,138.768 574.737,138.268 575.5,137.5 Z"/></g>
<g><path style="opacity:1" fill="#be090c" d="M 20.5,137.5 C 21.9516,138.302 23.6183,138.802 25.5,139C 22.2432,140.043 18.9099,140.543 15.5,140.5C 13.2495,140.181 11.2495,140.681 9.5,142C 10.8333,142.333 12.1667,142.667 13.5,143C 12.2343,145.383 11.5676,148.05 11.5,151C 11.6667,153.5 11.8333,156 12,158.5C 13.0177,157.294 13.5177,157.627 13.5,159.5C 13.263,162.063 12.763,162.063 12,159.5C 11.3333,165.5 11.3333,171.5 12,177.5C 12.3333,177.167 12.6667,176.833 13,176.5C 13.6667,177.833 13.6667,179.167 13,180.5C 12.0944,177.879 11.5944,178.046 11.5,181C 11.5944,183.954 12.0944,184.121 13,181.5C 13.1667,183 13.3333,184.5 13.5,186C 13.387,191.56 12.887,191.727 12,186.5C 11.4312,189.014 11.9312,191.348 13.5,193.5C 12.3251,196.483 12.3251,199.483 13.5,202.5C 12.0505,207.029 11.2172,211.696 11,216.5C 10.5001,234.83 10.3334,253.164 10.5,271.5C 8.83333,271.5 7.16667,271.5 5.5,271.5C 4.84197,228.448 5.50863,185.614 7.5,143C 6.16667,142.667 4.83333,142.333 3.5,142C 5.37592,140.983 7.37592,140.149 9.5,139.5C 8.62402,138.749 7.62402,138.249 6.5,138C 11.1548,137.501 15.8215,137.334 20.5,137.5 Z"/></g>
<g><path style="opacity:1" fill="#e20c0e" d="M 564.5,137.5 C 562.469,137.972 560.802,138.972 559.5,140.5C 552.479,140.624 545.479,140.29 538.5,139.5C 497.802,140.144 457.135,140.81 416.5,141.5C 312.205,140.169 207.872,140.169 103.5,141.5C 250.165,142.5 396.832,142.833 543.5,142.5C 546.287,143.477 549.287,143.81 552.5,143.5C 552.065,148.582 551.898,153.582 552,158.5C 548.684,156.931 545.851,157.598 543.5,160.5C 546.086,161.48 548.753,161.813 551.5,161.5C 551.5,162.5 551.5,163.5 551.5,164.5C 548.833,164.5 546.167,164.5 543.5,164.5C 543.5,165.5 543.5,166.5 543.5,167.5C 546.167,168.167 548.833,168.833 551.5,169.5C 551.5,172.167 551.5,174.833 551.5,177.5C 540.833,178.167 540.833,178.833 551.5,179.5C 551.5,181.5 551.5,183.5 551.5,185.5C 540.833,186.167 540.833,186.833 551.5,187.5C 551.752,191.767 552.419,195.934 553.5,200C 551.82,207.697 551.153,215.53 551.5,223.5C 550.448,223.351 549.448,223.517 548.5,224C 549.696,224.654 549.696,225.154 548.5,225.5C 547.158,223.995 545.492,223.328 543.5,223.5C 543.5,224.833 543.5,226.167 543.5,227.5C 546.562,227.844 549.562,228.511 552.5,229.5C 543.236,230.652 543.236,231.485 552.5,232C 552.167,232.333 551.833,232.667 551.5,233C 548.801,232.562 546.135,232.728 543.5,233.5C 546.167,234.167 548.833,234.833 551.5,235.5C 550.687,236.814 549.687,237.981 548.5,239C 549.448,239.483 550.448,239.649 551.5,239.5C 551.665,242.518 551.498,245.518 551,248.5C 549.915,249.293 548.748,249.96 547.5,250.5C 543.605,247.995 542.439,249.328 544,254.5C 546.857,251.836 549.357,252.17 551.5,255.5C 540.913,257.136 540.913,258.136 551.5,258.5C 551.5,262.833 551.5,267.167 551.5,271.5C 391.167,271.5 230.833,271.5 70.5,271.5C 70.3398,269.801 70.5065,268.134 71,266.5C 72.0177,267.706 72.5177,267.373 72.5,265.5C 71.7202,264.051 71.0535,262.551 70.5,261C 70.962,257.906 71.1287,254.739 71,251.5C 72.4936,252.747 73.9936,252.747 75.5,251.5C 73.9547,250.548 72.288,250.215 70.5,250.5C 70.5,249.5 70.5,248.5 70.5,247.5C 72.1667,247.5 73.8333,247.5 75.5,247.5C 75.762,246.022 75.4287,244.689 74.5,243.5C 73.2798,244.711 72.1131,244.711 71,243.5C 70.3711,240.689 69.8711,237.856 69.5,235C 70.4842,232.446 70.6509,229.946 70,227.5C 71.5625,227.741 73.0625,227.241 74.5,226C 69.0993,225.649 67.9327,223.149 71,218.5C 71.9138,219.654 72.7471,219.487 73.5,218C 72.3279,217.581 71.3279,216.915 70.5,216C 70.9817,214.992 71.1484,213.825 71,212.5C 72.4936,213.747 73.9936,213.747 75.5,212.5C 73.9547,211.548 72.288,211.215 70.5,211.5C 70.3398,209.801 70.5065,208.134 71,206.5C 72.3876,207.554 73.8876,207.72 75.5,207C 74.0953,205.731 72.4286,205.231 70.5,205.5C 70.6697,201.318 70.6697,197.318 70.5,193.5C 71.8255,193.795 73.1588,193.295 74.5,192C 73.2068,191.51 71.8734,191.343 70.5,191.5C 70.3335,180.828 70.5002,170.161 71,159.5C 72.4936,160.747 73.9936,160.747 75.5,159.5C 73.9547,158.548 72.288,158.215 70.5,158.5C 70.5,153.833 70.5,149.167 70.5,144.5C 73.3054,143.681 76.3054,143.181 79.5,143C 70.4816,142.832 61.4816,142.332 52.5,141.5C 56.2348,140.847 59.9015,140.014 63.5,139C 60.5,138.667 57.5,138.333 54.5,138C 224.5,137.5 394.5,137.333 564.5,137.5 Z"/></g>
<g><path style="opacity:1" fill="#f9b220" d="M -0.5,272.5 C 191.5,272.5 383.5,272.5 575.5,272.5C 588.5,272.5 601.5,272.5 614.5,272.5C 614.5,273.167 614.5,273.833 614.5,274.5C 608.833,274.5 603.167,274.5 597.5,274.5C 594.5,274.5 591.5,274.5 588.5,274.5C 582.833,274.5 577.167,274.5 571.5,274.5C 558.833,274.5 546.167,274.5 533.5,274.5C 382.833,274.5 232.167,274.5 81.5,274.5C 67.1667,274.5 52.8333,274.5 38.5,274.5C 29.5,274.5 20.5,274.5 11.5,274.5C 7.5,274.5 3.5,274.5 -0.5,274.5C -0.5,273.833 -0.5,273.167 -0.5,272.5 Z"/></g>
<g><path style="opacity:1" fill="#cbaa09" d="M -0.5,274.5 C 3.5,274.5 7.5,274.5 11.5,274.5C 11.5,274.833 11.5,275.167 11.5,275.5C 9.90097,275.232 8.56764,275.566 7.5,276.5C 6.32496,276.281 5.32496,276.614 4.5,277.5C 5.22501,301.789 5.72501,326.456 6,351.5C 6.21779,354.426 6.71779,357.26 7.5,360C 6.97814,360.561 6.6448,361.228 6.5,362C 9.22989,368.289 11.2299,374.789 12.5,381.5C 15.8957,381.633 16.2291,382.633 13.5,384.5C 14.4978,387.028 15.3311,387.028 16,384.5C 19.4972,388.338 23.3305,391.838 27.5,395C 31.9047,396.135 36.2381,397.468 40.5,399C 40.1667,399.333 39.8333,399.667 39.5,400C 48.6511,402.127 57.8177,402.96 67,402.5C 67.7504,403.126 68.5838,403.626 69.5,404C 229.833,404.667 390.167,404.667 550.5,404C 558.752,403.096 566.918,401.929 575,400.5C 575.333,400.833 575.667,401.167 576,401.5C 579.443,398.126 583.61,396.293 588.5,396C 589.38,394.644 589.714,393.144 589.5,391.5C 593.349,391.498 596.015,389.665 597.5,386C 599.044,385.71 600.377,385.044 601.5,384C 600.833,383.667 600.167,383.333 599.5,383C 601.516,380.282 603.35,377.449 605,374.5C 605.615,367.263 607.115,359.93 609.5,352.5C 608.923,350.894 608.59,349.228 608.5,347.5C 609.138,326.316 609.805,305.149 610.5,284C 610.237,281.568 609.237,279.568 607.5,278C 609.594,276.648 611.927,276.148 614.5,276.5C 614.5,320.833 614.5,365.167 614.5,409.5C 409.5,409.5 204.5,409.5 -0.5,409.5C -0.5,364.5 -0.5,319.5 -0.5,274.5 Z"/></g>
<g><path style="opacity:1" fill="#d6b40a" d="M 7.5,276.5 C 8.56764,275.566 9.90097,275.232 11.5,275.5C 13.0418,276.301 14.7085,276.634 16.5,276.5C 17.6002,277.558 18.9336,278.392 20.5,279C 16.5,280.333 16.5,281.667 20.5,283C 19.3128,284.019 18.3128,285.186 17.5,286.5C 18.3214,306.123 18.8214,325.79 19,345.5C 19.9263,349.652 20.7596,353.819 21.5,358C 23.5477,360.593 25.2144,363.427 26.5,366.5C 28.0453,367.452 29.712,367.785 31.5,367.5C 31.372,369.655 31.872,371.655 33,373.5C 41.6055,382.078 51.7722,388.245 63.5,392C 71.2329,392.758 78.8996,393.925 86.5,395.5C 236.964,395.828 387.464,395.494 538,394.5C 540.601,394.486 542.768,393.653 544.5,392C 548.833,391.667 553.167,391.333 557.5,391C 577.604,384.067 590.604,370.567 596.5,350.5C 596.833,340 597.167,329.5 597.5,319C 597.488,308.107 596.821,297.44 595.5,287C 598.028,285.983 598.028,284.816 595.5,283.5C 597.173,281.477 597.84,279.144 597.5,276.5C 599.604,276.201 601.604,276.534 603.5,277.5C 603.526,299.009 603.36,321.009 603,343.5C 602.344,353.786 599.677,363.452 595,372.5C 593.745,373.211 592.579,374.044 591.5,375C 592.167,375.333 592.833,375.667 593.5,376C 590.021,378.312 587.021,381.146 584.5,384.5C 581.669,386.82 578.669,388.987 575.5,391C 557.753,398.805 539.086,401.639 519.5,399.5C 500.849,400.566 482.183,401.233 463.5,401.5C 404.836,400.643 346.169,400.643 287.5,401.5C 242.164,401.033 196.83,400.367 151.5,399.5C 130.184,399.545 109.018,399.878 88,400.5C 77.1657,399.06 66.3324,397.56 55.5,396C 45.6527,392.756 36.986,388.089 29.5,382C 26.9773,378.824 24.144,375.99 21,373.5C 12.1123,355.278 8.94568,335.778 11.5,315C 11.5234,304.341 12.1901,293.841 13.5,283.5C 11.8267,281.477 11.1601,279.144 11.5,276.5C 10.1667,276.5 8.83333,276.5 7.5,276.5 Z"/></g>
<g><path style="opacity:1" fill="#e2be0a" d="M 11.5,275.5 C 11.5,275.167 11.5,274.833 11.5,274.5C 20.5,274.5 29.5,274.5 38.5,274.5C 38.1667,275.167 37.8333,275.833 37.5,276.5C 37.1667,277.167 36.8333,277.833 36.5,278.5C 35.7656,279.878 35.0989,281.378 34.5,283C 34.8783,300.288 34.8783,317.955 34.5,336C 35.4896,339.759 36.323,343.593 37,347.5C 39.6788,352.253 42.3454,356.92 45,361.5C 45.6667,362.833 46.3333,362.833 47,361.5C 56.871,372.704 69.371,379.204 84.5,381C 232.15,382.65 379.817,382.983 527.5,382C 545.602,381.53 560.769,374.696 573,361.5C 574.094,359.922 574.928,358.255 575.5,356.5C 576.999,353.953 578.499,351.286 580,348.5C 581.01,343.261 582.177,338.095 583.5,333C 582.234,315.039 582.234,297.206 583.5,279.5C 582.5,278.667 581.5,277.833 580.5,277C 583.522,276.902 586.189,276.068 588.5,274.5C 591.5,274.5 594.5,274.5 597.5,274.5C 597.5,275.167 597.5,275.833 597.5,276.5C 595.5,276.5 593.5,276.5 591.5,276.5C 591.836,280.52 592.17,284.353 592.5,288C 591.673,307.093 591.173,326.26 591,345.5C 587.995,352.519 584.995,359.519 582,366.5C 577.54,371.614 572.373,376.114 566.5,380C 560.342,382.254 554.342,384.921 548.5,388C 541.602,387.922 534.602,388.589 527.5,390C 488.833,390.167 450.167,390.333 411.5,390.5C 305.349,390.253 199.016,390.253 92.5,390.5C 83.3614,389.839 74.3614,388.339 65.5,386C 57.6165,381.281 49.6165,376.781 41.5,372.5C 36.6667,365.5 31.8333,358.5 27,351.5C 26.5193,347.469 25.8527,343.469 25,339.5C 24.2353,319.966 24.402,300.633 25.5,281.5C 24.9747,280.808 24.3081,280.308 23.5,280C 24.3567,279.311 25.0233,278.478 25.5,277.5C 22.5719,276.516 19.5719,276.183 16.5,276.5C 14.7085,276.634 13.0418,276.301 11.5,275.5 Z"/></g>
<g><path style="opacity:1" fill="#f0ca0b" d="M 571.5,276.5 C 570.047,277.825 570.381,278.658 572.5,279C 571.056,280.763 570.056,282.763 569.5,285C 570.328,285.915 571.328,286.581 572.5,287C 571.316,288.18 570.649,289.68 570.5,291.5C 571.044,293.674 571.044,295.674 570.5,297.5C 571.025,298.192 571.692,298.692 572.5,299C 569.833,300 569.833,301 572.5,302C 570.184,305.361 569.851,309.028 571.5,313C 571.098,325.272 569.765,337.439 567.5,349.5C 565.058,349.119 564.391,349.786 565.5,351.5C 564.05,352.85 563.383,354.516 563.5,356.5C 560.483,357.255 558.149,359.088 556.5,362C 548.515,367.06 539.849,370.394 530.5,372C 386.5,372.667 242.5,372.667 98.5,372C 95.4748,371.639 92.4748,371.139 89.5,370.5C 87.6128,372.133 86.1128,371.8 85,369.5C 84.4387,370.022 83.772,370.355 83,370.5C 78.9859,368.092 74.6525,366.425 70,365.5C 68.5262,363.084 66.3595,362.084 63.5,362.5C 63.5,361.5 63.5,360.5 63.5,359.5C 62.448,359.649 61.448,359.483 60.5,359C 53.8999,353.152 49.5666,345.819 47.5,337C 47.9054,336.055 48.572,335.388 49.5,335C 49.3942,319.105 49.0609,303.271 48.5,287.5C 53.7937,287.318 53.7937,286.818 48.5,286C 49.2551,283.867 50.5884,282.2 52.5,281C 50.7444,280.798 49.0777,280.298 47.5,279.5C 48.7701,278.712 49.7701,277.712 50.5,276.5C 54.0592,276.716 57.5592,276.382 61,275.5C 62.5955,276.497 64.0955,277.663 65.5,279C 65.3445,282.893 64.6778,286.893 63.5,291C 63.6667,292.167 63.8333,293.333 64,294.5C 64.3333,293.833 64.6667,293.167 65,292.5C 67.4496,295.474 66.9496,297.641 63.5,299C 64.9389,299.991 65.9389,301.324 66.5,303C 64.5856,305.882 64.2523,308.882 65.5,312C 63.579,313.703 63.579,315.703 65.5,318C 64.1667,320 64.1667,322 65.5,324C 62.9705,326.989 62.9705,329.989 65.5,333C 65.3552,333.772 65.0219,334.439 64.5,335C 65.9389,335.991 66.9389,337.324 67.5,339C 66.4464,340.388 66.2797,341.888 67,343.5C 68.419,345.336 69.5857,347.336 70.5,349.5C 71.7287,350.281 73.062,350.781 74.5,351C 73.8333,351.333 73.1667,351.667 72.5,352C 77.41,354.419 82.41,356.586 87.5,358.5C 236.833,359.833 386.167,359.833 535.5,358.5C 538.732,357.051 542.065,355.884 545.5,355C 545.167,354.667 544.833,354.333 544.5,354C 548.486,350.626 552.152,347.626 555.5,345C 554.892,343.769 554.559,342.436 554.5,341C 555.475,336.18 556.142,331.513 556.5,327C 553.956,325.225 553.956,323.392 556.5,321.5C 556.657,315.562 556.323,309.562 555.5,303.5C 555.464,298.391 556.131,293.391 557.5,288.5C 556.833,287.833 556.167,287.167 555.5,286.5C 556.167,286.167 556.833,285.833 557.5,285.5C 556.975,284.808 556.308,284.308 555.5,284C 555.616,282.732 555.949,281.398 556.5,280C 553.833,279.333 553.833,278.667 556.5,278C 556.167,277.667 555.833,277.333 555.5,277C 557.101,276.727 558.601,276.227 560,275.5C 563.73,276.46 567.563,276.793 571.5,276.5 Z"/></g>
<g><path style="opacity:1" fill="#eac50b" d="M 571.5,274.5 C 577.167,274.5 582.833,274.5 588.5,274.5C 586.189,276.068 583.522,276.902 580.5,277C 581.5,277.833 582.5,278.667 583.5,279.5C 582.234,297.206 582.234,315.039 583.5,333C 582.177,338.095 581.01,343.261 580,348.5C 578.499,351.286 576.999,353.953 575.5,356.5C 573.606,357.048 571.94,358.048 570.5,359.5C 562.127,370.187 551.46,376.687 538.5,379C 387.167,379.667 235.833,379.667 84.5,379C 66.7831,375.89 52.6164,367.057 42,352.5C 41.6943,350.094 40.861,347.927 39.5,346C 39.6448,345.228 39.9781,344.561 40.5,344C 38.2129,342.573 37.8795,340.739 39.5,338.5C 39.0233,337.522 38.3567,336.689 37.5,336C 38.3586,328.618 38.3586,320.951 37.5,313C 37.9054,312.055 38.572,311.388 39.5,311C 38.6919,310.692 38.0253,310.192 37.5,309.5C 38.8333,308.167 38.8333,306.833 37.5,305.5C 38.0253,304.808 38.6919,304.308 39.5,304C 38.6433,303.311 37.9767,302.478 37.5,301.5C 37.1952,297.814 37.5286,293.98 38.5,290C 38.0969,288.527 37.4303,287.194 36.5,286C 40.1348,284.584 40.4682,282.584 37.5,280C 38.7119,278.893 38.3786,278.393 36.5,278.5C 36.8333,277.833 37.1667,277.167 37.5,276.5C 41.8333,276.5 46.1667,276.5 50.5,276.5C 49.7701,277.712 48.7701,278.712 47.5,279.5C 49.0777,280.298 50.7444,280.798 52.5,281C 50.5884,282.2 49.2551,283.867 48.5,286C 53.7937,286.818 53.7937,287.318 48.5,287.5C 49.0609,303.271 49.3942,319.105 49.5,335C 48.572,335.388 47.9054,336.055 47.5,337C 49.5666,345.819 53.8999,353.152 60.5,359C 61.448,359.483 62.448,359.649 63.5,359.5C 63.5,360.5 63.5,361.5 63.5,362.5C 66.3595,362.084 68.5262,363.084 70,365.5C 74.6525,366.425 78.9859,368.092 83,370.5C 83.772,370.355 84.4387,370.022 85,369.5C 86.1128,371.8 87.6128,372.133 89.5,370.5C 92.4748,371.139 95.4748,371.639 98.5,372C 242.5,372.667 386.5,372.667 530.5,372C 539.849,370.394 548.515,367.06 556.5,362C 558.149,359.088 560.483,357.255 563.5,356.5C 563.383,354.516 564.05,352.85 565.5,351.5C 564.391,349.786 565.058,349.119 567.5,349.5C 569.765,337.439 571.098,325.272 571.5,313C 569.851,309.028 570.184,305.361 572.5,302C 569.833,301 569.833,300 572.5,299C 571.692,298.692 571.025,298.192 570.5,297.5C 571.044,295.674 571.044,293.674 570.5,291.5C 570.649,289.68 571.316,288.18 572.5,287C 571.328,286.581 570.328,285.915 569.5,285C 570.056,282.763 571.056,280.763 572.5,279C 570.381,278.658 570.047,277.825 571.5,276.5C 572.506,276.062 572.506,275.396 571.5,274.5 Z"/></g>
<g><path style="opacity:1" fill="#d1b009" d="M 597.5,274.5 C 603.167,274.5 608.833,274.5 614.5,274.5C 614.5,275.167 614.5,275.833 614.5,276.5C 611.927,276.148 609.594,276.648 607.5,278C 609.237,279.568 610.237,281.568 610.5,284C 609.805,305.149 609.138,326.316 608.5,347.5C 608.59,349.228 608.923,350.894 609.5,352.5C 607.115,359.93 605.615,367.263 605,374.5C 603.35,377.449 601.516,380.282 599.5,383C 600.167,383.333 600.833,383.667 601.5,384C 600.377,385.044 599.044,385.71 597.5,386C 596.015,389.665 593.349,391.498 589.5,391.5C 589.714,393.144 589.38,394.644 588.5,396C 583.61,396.293 579.443,398.126 576,401.5C 575.667,401.167 575.333,400.833 575,400.5C 566.918,401.929 558.752,403.096 550.5,404C 390.167,404.667 229.833,404.667 69.5,404C 68.5838,403.626 67.7504,403.126 67,402.5C 57.8177,402.96 48.6511,402.127 39.5,400C 39.8333,399.667 40.1667,399.333 40.5,399C 36.2381,397.468 31.9047,396.135 27.5,395C 23.3305,391.838 19.4972,388.338 16,384.5C 15.3311,387.028 14.4978,387.028 13.5,384.5C 16.2291,382.633 15.8957,381.633 12.5,381.5C 11.2299,374.789 9.22989,368.289 6.5,362C 6.6448,361.228 6.97814,360.561 7.5,360C 6.71779,357.26 6.21779,354.426 6,351.5C 5.72501,326.456 5.22501,301.789 4.5,277.5C 5.32496,276.614 6.32496,276.281 7.5,276.5C 8.83333,276.5 10.1667,276.5 11.5,276.5C 11.1601,279.144 11.8267,281.477 13.5,283.5C 12.1901,293.841 11.5234,304.341 11.5,315C 8.94568,335.778 12.1123,355.278 21,373.5C 24.144,375.99 26.9773,378.824 29.5,382C 36.986,388.089 45.6527,392.756 55.5,396C 66.3324,397.56 77.1657,399.06 88,400.5C 109.018,399.878 130.184,399.545 151.5,399.5C 196.83,400.367 242.164,401.033 287.5,401.5C 346.169,400.643 404.836,400.643 463.5,401.5C 482.183,401.233 500.849,400.566 519.5,399.5C 539.086,401.639 557.753,398.805 575.5,391C 578.669,388.987 581.669,386.82 584.5,384.5C 587.021,381.146 590.021,378.312 593.5,376C 592.833,375.667 592.167,375.333 591.5,375C 592.579,374.044 593.745,373.211 595,372.5C 599.677,363.452 602.344,353.786 603,343.5C 603.36,321.009 603.526,299.009 603.5,277.5C 601.604,276.534 599.604,276.201 597.5,276.5C 597.5,275.833 597.5,275.167 597.5,274.5 Z"/></g>
<g><path style="opacity:1" fill="#dcb80a" d="M 16.5,276.5 C 19.5719,276.183 22.5719,276.516 25.5,277.5C 25.0233,278.478 24.3567,279.311 23.5,280C 24.3081,280.308 24.9747,280.808 25.5,281.5C 24.402,300.633 24.2353,319.966 25,339.5C 25.8527,343.469 26.5193,347.469 27,351.5C 31.8333,358.5 36.6667,365.5 41.5,372.5C 49.6165,376.781 57.6165,381.281 65.5,386C 74.3614,388.339 83.3614,389.839 92.5,390.5C 199.016,390.253 305.349,390.253 411.5,390.5C 450.167,390.333 488.833,390.167 527.5,390C 534.602,388.589 541.602,387.922 548.5,388C 554.342,384.921 560.342,382.254 566.5,380C 572.373,376.114 577.54,371.614 582,366.5C 584.995,359.519 587.995,352.519 591,345.5C 591.173,326.26 591.673,307.093 592.5,288C 592.17,284.353 591.836,280.52 591.5,276.5C 593.5,276.5 595.5,276.5 597.5,276.5C 597.84,279.144 597.173,281.477 595.5,283.5C 598.028,284.816 598.028,285.983 595.5,287C 596.821,297.44 597.488,308.107 597.5,319C 597.167,329.5 596.833,340 596.5,350.5C 590.604,370.567 577.604,384.067 557.5,391C 553.167,391.333 548.833,391.667 544.5,392C 542.768,393.653 540.601,394.486 538,394.5C 387.464,395.494 236.964,395.828 86.5,395.5C 78.8996,393.925 71.2329,392.758 63.5,392C 51.7722,388.245 41.6055,382.078 33,373.5C 31.872,371.655 31.372,369.655 31.5,367.5C 29.712,367.785 28.0453,367.452 26.5,366.5C 25.2144,363.427 23.5477,360.593 21.5,358C 20.7596,353.819 19.9263,349.652 19,345.5C 18.8214,325.79 18.3214,306.123 17.5,286.5C 18.3128,285.186 19.3128,284.019 20.5,283C 16.5,281.667 16.5,280.333 20.5,279C 18.9336,278.392 17.6002,277.558 16.5,276.5 Z"/></g>
<g><path style="opacity:1" fill="#e6c20a" d="M 36.5,278.5 C 38.3786,278.393 38.7119,278.893 37.5,280C 40.4682,282.584 40.1348,284.584 36.5,286C 37.4303,287.194 38.0969,288.527 38.5,290C 37.5286,293.98 37.1952,297.814 37.5,301.5C 37.9767,302.478 38.6433,303.311 39.5,304C 38.6919,304.308 38.0253,304.808 37.5,305.5C 38.8333,306.833 38.8333,308.167 37.5,309.5C 38.0253,310.192 38.6919,310.692 39.5,311C 38.572,311.388 37.9054,312.055 37.5,313C 38.3586,320.951 38.3586,328.618 37.5,336C 38.3567,336.689 39.0233,337.522 39.5,338.5C 37.8795,340.739 38.2129,342.573 40.5,344C 39.9781,344.561 39.6448,345.228 39.5,346C 40.861,347.927 41.6943,350.094 42,352.5C 52.6164,367.057 66.7831,375.89 84.5,379C 235.833,379.667 387.167,379.667 538.5,379C 551.46,376.687 562.127,370.187 570.5,359.5C 571.94,358.048 573.606,357.048 575.5,356.5C 574.928,358.255 574.094,359.922 573,361.5C 560.769,374.696 545.602,381.53 527.5,382C 379.817,382.983 232.15,382.65 84.5,381C 69.371,379.204 56.871,372.704 47,361.5C 46.3333,362.833 45.6667,362.833 45,361.5C 42.3454,356.92 39.6788,352.253 37,347.5C 36.323,343.593 35.4896,339.759 34.5,336C 34.8783,317.955 34.8783,300.288 34.5,283C 35.0989,281.378 35.7656,279.878 36.5,278.5 Z"/></g>
<g><path style="opacity:1" fill="#f4ce0b" d="M 38.5,274.5 C 52.8333,274.5 67.1667,274.5 81.5,274.5C 80.7375,275.268 79.7375,275.768 78.5,276C 81.1667,276.333 83.8333,276.667 86.5,277C 83.7606,278.748 80.9273,278.914 78,277.5C 74.0142,277.972 70.1809,278.806 66.5,280C 70.1053,279.776 73.772,280.276 77.5,281.5C 75.5,282.167 73.5,282.833 71.5,283.5C 75.4034,285.283 75.0701,286.45 70.5,287C 71.5784,287.674 72.2451,288.674 72.5,290C 72.1554,291.573 71.4887,292.74 70.5,293.5C 70.737,296.063 71.237,296.063 72,293.5C 72.4828,294.448 72.6495,295.448 72.5,296.5C 71.1667,296.5 69.8333,296.5 68.5,296.5C 68.6633,294.143 68.4966,291.81 68,289.5C 67.3333,293.833 67.3333,298.167 68,302.5C 71.0755,302.791 72.5755,304.458 72.5,307.5C 72.437,312.829 72.1036,318.163 71.5,323.5C 71.446,330.926 73.7794,337.426 78.5,343C 76.0684,344.087 76.4017,344.587 79.5,344.5C 79.3433,345.873 79.51,347.207 80,348.5C 83.7579,346.527 85.9245,347.527 86.5,351.5C 89.5,351.5 92.5,351.5 95.5,351.5C 95.5,352.833 95.5,354.167 95.5,355.5C 116.914,356.052 138.247,355.052 159.5,352.5C 285.5,351.833 411.5,351.167 537.5,350.5C 540.154,347.736 542.988,345.069 546,342.5C 546.931,340.541 547.764,338.541 548.5,336.5C 552.311,335.262 552.311,334.596 548.5,334.5C 548.5,332.5 548.5,330.5 548.5,328.5C 552.5,328.167 552.5,327.833 548.5,327.5C 548.335,324.482 548.502,321.482 549,318.5C 549.914,319.654 550.747,319.487 551.5,318C 550.975,317.308 550.308,316.808 549.5,316.5C 549.167,313.833 548.833,311.167 548.5,308.5C 548.562,305.387 549.229,302.554 550.5,300C 549.692,299.692 549.025,299.192 548.5,298.5C 549.529,298.704 550.529,298.204 551.5,297C 550.552,296.517 549.552,296.351 548.5,296.5C 548.172,292.646 548.838,288.979 550.5,285.5C 550.078,283.337 548.744,282.003 546.5,281.5C 549.152,280.534 551.485,279.867 553.5,279.5C 550.232,278.513 546.898,278.18 543.5,278.5C 543.5,277.5 543.5,276.5 543.5,275.5C 539.958,275.813 536.625,275.479 533.5,274.5C 546.167,274.5 558.833,274.5 571.5,274.5C 572.506,275.396 572.506,276.062 571.5,276.5C 567.563,276.793 563.73,276.46 560,275.5C 558.601,276.227 557.101,276.727 555.5,277C 555.833,277.333 556.167,277.667 556.5,278C 553.833,278.667 553.833,279.333 556.5,280C 555.949,281.398 555.616,282.732 555.5,284C 556.308,284.308 556.975,284.808 557.5,285.5C 556.833,285.833 556.167,286.167 555.5,286.5C 556.167,287.167 556.833,287.833 557.5,288.5C 556.131,293.391 555.464,298.391 555.5,303.5C 556.323,309.562 556.657,315.562 556.5,321.5C 553.956,323.392 553.956,325.225 556.5,327C 556.142,331.513 555.475,336.18 554.5,341C 554.559,342.436 554.892,343.769 555.5,345C 552.152,347.626 548.486,350.626 544.5,354C 544.833,354.333 545.167,354.667 545.5,355C 542.065,355.884 538.732,357.051 535.5,358.5C 386.167,359.833 236.833,359.833 87.5,358.5C 82.41,356.586 77.41,354.419 72.5,352C 73.1667,351.667 73.8333,351.333 74.5,351C 73.062,350.781 71.7287,350.281 70.5,349.5C 69.5857,347.336 68.419,345.336 67,343.5C 66.2797,341.888 66.4464,340.388 67.5,339C 66.9389,337.324 65.9389,335.991 64.5,335C 65.0219,334.439 65.3552,333.772 65.5,333C 62.9705,329.989 62.9705,326.989 65.5,324C 64.1667,322 64.1667,320 65.5,318C 63.579,315.703 63.579,313.703 65.5,312C 64.2523,308.882 64.5856,305.882 66.5,303C 65.9389,301.324 64.9389,299.991 63.5,299C 66.9496,297.641 67.4496,295.474 65,292.5C 64.6667,293.167 64.3333,293.833 64,294.5C 63.8333,293.333 63.6667,292.167 63.5,291C 64.6778,286.893 65.3445,282.893 65.5,279C 64.0955,277.663 62.5955,276.497 61,275.5C 57.5592,276.382 54.0592,276.716 50.5,276.5C 46.1667,276.5 41.8333,276.5 37.5,276.5C 37.8333,275.833 38.1667,275.167 38.5,274.5 Z"/></g>
<g><path style="opacity:1" fill="#f8d10a" d="M 81.5,274.5 C 232.167,274.5 382.833,274.5 533.5,274.5C 536.625,275.479 539.958,275.813 543.5,275.5C 543.5,276.5 543.5,277.5 543.5,278.5C 546.898,278.18 550.232,278.513 553.5,279.5C 551.485,279.867 549.152,280.534 546.5,281.5C 548.744,282.003 550.078,283.337 550.5,285.5C 548.838,288.979 548.172,292.646 548.5,296.5C 549.552,296.351 550.552,296.517 551.5,297C 550.529,298.204 549.529,298.704 548.5,298.5C 549.025,299.192 549.692,299.692 550.5,300C 549.229,302.554 548.562,305.387 548.5,308.5C 548.833,311.167 549.167,313.833 549.5,316.5C 550.308,316.808 550.975,317.308 551.5,318C 550.747,319.487 549.914,319.654 549,318.5C 548.502,321.482 548.335,324.482 548.5,327.5C 552.5,327.833 552.5,328.167 548.5,328.5C 548.5,330.5 548.5,332.5 548.5,334.5C 552.311,334.596 552.311,335.262 548.5,336.5C 547.764,338.541 546.931,340.541 546,342.5C 542.988,345.069 540.154,347.736 537.5,350.5C 411.5,351.167 285.5,351.833 159.5,352.5C 138.247,355.052 116.914,356.052 95.5,355.5C 95.5,354.167 95.5,352.833 95.5,351.5C 92.5,351.5 89.5,351.5 86.5,351.5C 85.9245,347.527 83.7579,346.527 80,348.5C 79.51,347.207 79.3433,345.873 79.5,344.5C 76.4017,344.587 76.0684,344.087 78.5,343C 73.7794,337.426 71.446,330.926 71.5,323.5C 72.1036,318.163 72.437,312.829 72.5,307.5C 72.5755,304.458 71.0755,302.791 68,302.5C 67.3333,298.167 67.3333,293.833 68,289.5C 68.4966,291.81 68.6633,294.143 68.5,296.5C 69.8333,296.5 71.1667,296.5 72.5,296.5C 72.6495,295.448 72.4828,294.448 72,293.5C 71.237,296.063 70.737,296.063 70.5,293.5C 71.4887,292.74 72.1554,291.573 72.5,290C 72.2451,288.674 71.5784,287.674 70.5,287C 75.0701,286.45 75.4034,285.283 71.5,283.5C 73.5,282.833 75.5,282.167 77.5,281.5C 73.772,280.276 70.1053,279.776 66.5,280C 70.1809,278.806 74.0142,277.972 78,277.5C 80.9273,278.914 83.7606,278.748 86.5,277C 83.8333,276.667 81.1667,276.333 78.5,276C 79.7375,275.768 80.7375,275.268 81.5,274.5 Z"/></g>
</svg>
