<?xml version="1.0" encoding="UTF-8"?>
<!DOCTYPE svg PUBLIC "-//W3C//DTD SVG 1.1//EN" "http://www.w3.org/Graphics/SVG/1.1/DTD/svg11.dtd">
<svg xmlns="http://www.w3.org/2000/svg" version="1.1" width="640px" height="384px" style="shape-rendering:geometricPrecision; text-rendering:geometricPrecision; image-rendering:optimizeQuality; fill-rule:evenodd; clip-rule:evenodd" xmlns:xlink="http://www.w3.org/1999/xlink">
<g><path style="opacity:1" fill="#032768" d="M -0.5,-0.5 C 68.1667,-0.5 136.833,-0.5 205.5,-0.5C 205.5,8.16667 205.5,16.8333 205.5,25.5C 205.5,33.8333 205.5,42.1667 205.5,50.5C 205.5,58.8333 205.5,67.1667 205.5,75.5C 205.5,84.1667 205.5,92.8333 205.5,101.5C 205.5,109.833 205.5,118.167 205.5,126.5C 205.5,134.833 205.5,143.167 205.5,151.5C 205.5,159.833 205.5,168.167 205.5,176.5C 205.5,185.5 205.5,194.5 205.5,203.5C 136.833,203.5 68.1667,203.5 -0.5,203.5C -0.5,135.5 -0.5,67.5 -0.5,-0.5 Z"/></g>
<g><path style="opacity:1" fill="#c01332" d="M 205.5,-0.5 C 350.167,-0.5 494.833,-0.5 639.5,-0.5C 639.5,8.16667 639.5,16.8333 639.5,25.5C 494.833,25.5 350.167,25.5 205.5,25.5C 205.5,16.8333 205.5,8.16667 205.5,-0.5 Z"/></g>
<g><path style="opacity:1" fill="#f1f3f6" d="M 148.5,9.5 C 150.601,12.7966 151.935,16.4632 152.5,20.5C 156.182,20.3347 159.848,20.5014 163.5,21C 160.833,23.3333 158.167,25.6667 155.5,28C 157.055,31.7167 157.889,35.55 158,39.5C 154.974,36.9737 151.807,34.6404 148.5,32.5C 145.244,34.7113 142.078,37.0446 139,39.5C 139.19,35.9123 140.023,32.4123 141.5,29C 139.538,25.705 136.872,23.0383 133.5,21C 137.211,20.8253 140.878,20.3253 144.5,19.5C 145.645,16.0581 146.979,12.7248 148.5,9.5 Z"/></g>
<g><path style="opacity:1" fill="#f3f5f7" d="M 26.5,9.5 C 28.5323,12.7122 30.199,16.2122 31.5,20C 35.1667,20.3333 38.8333,20.6667 42.5,21C 40,22.8333 37.5,24.6667 35,26.5C 35.5404,30.4666 35.8737,34.4666 36,38.5C 33.079,36.6229 30.2456,34.6229 27.5,32.5C 24.1667,34.8333 20.8333,37.1667 17.5,39.5C 17.1667,39.3333 16.8333,39.1667 16.5,39C 18.2467,35.6706 19.58,32.1706 20.5,28.5C 17.6709,25.8414 14.6709,23.3414 11.5,21C 15.4862,20.5012 19.4862,20.3345 23.5,20.5C 24.2967,16.7768 25.2967,13.1101 26.5,9.5 Z"/></g>
<g><path style="opacity:1" fill="#f1f4f6" d="M 87.5,9.5 C 90,12.6599 91.3333,16.3266 91.5,20.5C 95.5138,20.3345 99.5138,20.5012 103.5,21C 101,22.8333 98.5,24.6667 96,26.5C 95.5311,29.9444 96.0311,33.2778 97.5,36.5C 97.1667,37.1667 96.8333,37.8333 96.5,38.5C 93.7544,36.3771 90.921,34.3771 88,32.5C 85.079,34.3771 82.2456,36.3771 79.5,38.5C 79.1667,37.8333 78.8333,37.1667 78.5,36.5C 79.9689,33.2778 80.4689,29.9444 80,26.5C 77.5,24.6667 75,22.8333 72.5,21C 76.4862,20.5012 80.4862,20.3345 84.5,20.5C 84.8944,16.6528 85.8944,12.9861 87.5,9.5 Z"/></g>
<g><path style="opacity:1" fill="#fefefe" d="M 205.5,25.5 C 350.167,25.5 494.833,25.5 639.5,25.5C 639.5,33.8333 639.5,42.1667 639.5,50.5C 494.833,50.5 350.167,50.5 205.5,50.5C 205.5,42.1667 205.5,33.8333 205.5,25.5 Z"/></g>
<g><path style="opacity:1" fill="#edf0f4" d="M 56.5,47.5 C 57.4972,47.4701 58.1639,47.9701 58.5,49C 59.4014,51.8711 60.4014,54.7044 61.5,57.5C 65.4592,58.3265 69.4592,58.8265 73.5,59C 70.6667,61.1667 67.8333,63.3333 65,65.5C 65.9768,69.4173 66.6435,73.4173 67,77.5C 63.8793,75.3603 60.7126,73.3603 57.5,71.5C 54.699,73.0728 52.0323,74.9062 49.5,77C 48.6683,77.6877 48.0016,77.521 47.5,76.5C 48.8794,72.884 49.7127,69.2173 50,65.5C 47.1667,63.3333 44.3333,61.1667 41.5,59C 45.5408,58.8265 49.5408,58.3265 53.5,57.5C 55.0946,54.3199 56.0946,50.9865 56.5,47.5 Z"/></g>
<g><path style="opacity:1" fill="#eef1f5" d="M 178.5,47.5 C 180.885,50.6535 182.218,54.3201 182.5,58.5C 186.514,58.3345 190.514,58.5012 194.5,59C 192.093,61.2848 189.593,63.4514 187,65.5C 186.681,69.5724 187.515,73.4057 189.5,77C 189.167,77.1667 188.833,77.3333 188.5,77.5C 185.57,75.1187 182.403,73.1187 179,71.5C 175.738,73.0926 172.738,75.0926 170,77.5C 170.183,73.7618 171.016,70.0952 172.5,66.5C 169.5,64 166.5,61.5 163.5,59C 167.486,58.5012 171.486,58.3345 175.5,58.5C 176.297,54.7768 177.297,51.1101 178.5,47.5 Z"/></g>
<g><path style="opacity:1" fill="#c01533" d="M 205.5,50.5 C 350.167,50.5 494.833,50.5 639.5,50.5C 639.5,58.8333 639.5,67.1667 639.5,75.5C 494.833,75.5 350.167,75.5 205.5,75.5C 205.5,67.1667 205.5,58.8333 205.5,50.5 Z"/></g>
<g><path style="opacity:1" fill="#eff2f5" d="M 117.5,47.5 C 118.586,47.62 119.253,48.2867 119.5,49.5C 120.328,52.4788 120.995,55.4788 121.5,58.5C 125.846,58.3343 130.179,58.501 134.5,59C 131.667,61.1667 128.833,63.3333 126,65.5C 126.287,69.2173 127.121,72.884 128.5,76.5C 128.167,76.8333 127.833,77.1667 127.5,77.5C 124.633,75.2379 121.633,73.2379 118.5,71.5C 114.957,72.8708 111.79,74.8708 109,77.5C 109.028,73.7159 109.861,70.0492 111.5,66.5C 108.671,63.8414 105.671,61.3414 102.5,59C 106.5,58.6667 110.5,58.3333 114.5,58C 115.801,54.5965 116.801,51.0965 117.5,47.5 Z"/></g>
<g><path style="opacity:1" fill="#fefefe" d="M 205.5,75.5 C 350.167,75.5 494.833,75.5 639.5,75.5C 639.5,84.1667 639.5,92.8333 639.5,101.5C 494.833,101.5 350.167,101.5 205.5,101.5C 205.5,92.8333 205.5,84.1667 205.5,75.5 Z"/></g>
<g><path style="opacity:1" fill="#f2f5f7" d="M 91.5,96.5 C 95.1667,97.1667 98.8333,97.8333 102.5,98.5C 100.454,100.279 98.2869,101.946 96,103.5C 96.1263,107.533 96.4596,111.533 97,115.5C 93.9832,113.494 90.9832,111.494 88,109.5C 85.0168,111.494 82.0168,113.494 79,115.5C 79.9224,111.607 80.2557,107.607 80,103.5C 77.5,101.667 75,99.8333 72.5,98C 76.4862,97.5012 80.4862,97.3345 84.5,97.5C 86.2463,83.6853 88.5796,83.352 91.5,96.5 Z"/></g>
<g><path style="opacity:1" fill="#f1f4f6" d="M 152.5,96.5 C 156.167,97.1667 159.833,97.8333 163.5,98.5C 160.649,100.427 157.982,102.594 155.5,105C 156.269,108.243 157.269,111.41 158.5,114.5C 158.167,114.833 157.833,115.167 157.5,115.5C 154.5,113.5 151.5,111.5 148.5,109.5C 145.193,111.64 142.026,113.974 139,116.5C 139.386,112.65 140.219,108.816 141.5,105C 139.269,102.266 136.602,100.099 133.5,98.5C 137.768,98.1307 141.768,97.1307 145.5,95.5C 145.784,92.1476 146.95,89.1476 149,86.5C 150.47,89.7439 151.637,93.0772 152.5,96.5 Z"/></g>
<g><path style="opacity:1" fill="#f4f6f7" d="M 31.5,96.5 C 35.1667,97.1667 38.8333,97.8333 42.5,98.5C 39.8818,99.9447 37.3818,101.611 35,103.5C 35.3333,107.5 35.6667,111.5 36,115.5C 33.3053,113.306 30.472,111.306 27.5,109.5C 24.328,111.252 21.328,113.252 18.5,115.5C 17.9291,111.915 18.5958,108.415 20.5,105C 18.0178,102.594 15.3512,100.427 12.5,98.5C 16.1667,97.8333 19.8333,97.1667 23.5,96.5C 24.3634,93.0772 25.5301,89.7439 27,86.5C 28.6122,89.8587 30.1122,93.192 31.5,96.5 Z"/></g>
<g><path style="opacity:1" fill="#6d7ea2" d="M 23.5,96.5 C 19.8333,97.1667 16.1667,97.8333 12.5,98.5C 11.9569,98.44 11.6236,98.1067 11.5,97.5C 15.4454,96.5091 19.4454,96.1758 23.5,96.5 Z"/></g>
<g><path style="opacity:1" fill="#61789c" d="M 31.5,96.5 C 35.5546,96.1758 39.5546,96.5091 43.5,97.5C 43.3764,98.1067 43.0431,98.44 42.5,98.5C 38.8333,97.8333 35.1667,97.1667 31.5,96.5 Z"/></g>
<g><path style="opacity:1" fill="#6e7da9" d="M 91.5,96.5 C 95.5546,96.1758 99.5546,96.5091 103.5,97.5C 103.376,98.1067 103.043,98.44 102.5,98.5C 98.8333,97.8333 95.1667,97.1667 91.5,96.5 Z"/></g>
<g><path style="opacity:1" fill="#6a7f9f" d="M 145.5,95.5 C 141.768,97.1307 137.768,98.1307 133.5,98.5C 132.957,98.44 132.624,98.1067 132.5,97.5C 136.877,96.7777 141.21,96.1111 145.5,95.5 Z"/></g>
<g><path style="opacity:1" fill="#6a7ca0" d="M 152.5,96.5 C 156.555,96.1758 160.555,96.5091 164.5,97.5C 164.376,98.1067 164.043,98.44 163.5,98.5C 159.833,97.8333 156.167,97.1667 152.5,96.5 Z"/></g>
<g><path style="opacity:1" fill="#bf0b30" d="M 639.5,103.5 C 639.5,109.167 639.5,114.833 639.5,120.5C 495.5,120.5 351.5,120.5 207.5,120.5C 207.5,114.833 207.5,109.167 207.5,103.5C 351.5,103.5 495.5,103.5 639.5,103.5 Z"/></g>
<g><path style="opacity:1" fill="#bf072a" d="M 639.5,102.5 C 639.5,102.833 639.5,103.167 639.5,103.5C 495.5,103.5 351.5,103.5 207.5,103.5C 207.5,109.167 207.5,114.833 207.5,120.5C 351.5,120.5 495.5,120.5 639.5,120.5C 639.5,121.167 639.5,121.833 639.5,122.5C 495.263,122.168 351.097,122.501 207,123.5C 206.5,116.508 206.334,109.508 206.5,102.5C 350.833,102.5 495.167,102.5 639.5,102.5 Z"/></g>
<g><path style="opacity:1" fill="#c52c42" d="M 205.5,101.5 C 350.167,101.5 494.833,101.5 639.5,101.5C 639.5,101.833 639.5,102.167 639.5,102.5C 495.167,102.5 350.833,102.5 206.5,102.5C 206.334,109.508 206.5,116.508 207,123.5C 351.097,122.501 495.263,122.168 639.5,122.5C 639.5,123.833 639.5,125.167 639.5,126.5C 494.833,126.5 350.167,126.5 205.5,126.5C 205.5,118.167 205.5,109.833 205.5,101.5 Z"/></g>
<g><path style="opacity:1" fill="#fefefe" d="M 205.5,126.5 C 350.167,126.5 494.833,126.5 639.5,126.5C 639.5,134.833 639.5,143.167 639.5,151.5C 494.833,151.5 350.167,151.5 205.5,151.5C 205.5,143.167 205.5,134.833 205.5,126.5 Z"/></g>
<g><path style="opacity:1" fill="#eff2f5" d="M 56.5,124.5 C 57.4972,124.47 58.1639,124.97 58.5,126C 59.4014,128.871 60.4014,131.704 61.5,134.5C 65.4592,135.327 69.4592,135.827 73.5,136C 70.3291,138.341 67.3291,140.841 64.5,143.5C 66.1388,147.049 66.9721,150.716 67,154.5C 63.9223,152.045 60.7556,149.711 57.5,147.5C 54.65,149.427 51.9833,151.594 49.5,154C 48.6683,154.688 48.0016,154.521 47.5,153.5C 48.5,150.167 49.5,146.833 50.5,143.5C 47.9094,140.534 44.9094,138.034 41.5,136C 45.5408,135.827 49.5408,135.327 53.5,134.5C 54.9094,131.273 55.9094,127.94 56.5,124.5 Z"/></g>
<g><path style="opacity:1" fill="#f0f3f6" d="M 117.5,125.5 C 119.713,128.082 121.38,131.082 122.5,134.5C 126.122,135.325 129.789,135.825 133.5,136C 130.341,138.232 127.674,140.899 125.5,144C 126.269,147.243 127.269,150.41 128.5,153.5C 128.167,153.833 127.833,154.167 127.5,154.5C 124.633,152.238 121.633,150.238 118.5,148.5C 114.957,149.871 111.79,151.871 109,154.5C 109.028,150.716 109.861,147.049 111.5,143.5C 108.671,140.841 105.671,138.341 102.5,136C 106.541,135.827 110.541,135.327 114.5,134.5C 115.35,131.427 116.35,128.427 117.5,125.5 Z"/></g>
<g><path style="opacity:1" fill="#f1f4f6" d="M 178.5,124.5 C 181,127.66 182.333,131.327 182.5,135.5C 186.514,135.334 190.514,135.501 194.5,136C 191.72,137.812 189.22,139.979 187,142.5C 186.99,146.481 187.823,150.314 189.5,154C 189.167,154.167 188.833,154.333 188.5,154.5C 185.57,152.119 182.403,150.119 179,148.5C 175.738,150.093 172.738,152.093 170,154.5C 169.718,150.624 170.551,146.957 172.5,143.5C 169.671,140.841 166.671,138.341 163.5,136C 167.486,135.501 171.486,135.334 175.5,135.5C 176.297,131.777 177.297,128.11 178.5,124.5 Z"/></g>
<g><path style="opacity:1" fill="#c01634" d="M 205.5,151.5 C 350.167,151.5 494.833,151.5 639.5,151.5C 639.5,159.833 639.5,168.167 639.5,176.5C 494.833,176.5 350.167,176.5 205.5,176.5C 205.5,168.167 205.5,159.833 205.5,151.5 Z"/></g>
<g><path style="opacity:1" fill="#f1f4f6" d="M 91.5,173.5 C 95.1667,174.167 98.8333,174.833 102.5,175.5C 100.454,177.279 98.2869,178.946 96,180.5C 96.1263,184.533 96.4596,188.533 97,192.5C 94.2615,190.093 91.2615,188.093 88,186.5C 84.7385,188.093 81.7385,190.093 79,192.5C 79.3333,188.5 79.6667,184.5 80,180.5C 77.7131,178.946 75.5465,177.279 73.5,175.5C 77.1667,174.833 80.8333,174.167 84.5,173.5C 85.1596,169.687 86.3262,166.021 88,162.5C 89.6738,166.021 90.8404,169.687 91.5,173.5 Z"/></g>
<g><path style="opacity:1" fill="#f1f4f6" d="M 31.5,173.5 C 34.8333,174.167 38.1667,174.833 41.5,175.5C 39.4535,177.279 37.2869,178.946 35,180.5C 35.5404,184.467 35.8737,188.467 36,192.5C 33.3053,190.306 30.472,188.306 27.5,186.5C 24.328,188.252 21.328,190.252 18.5,192.5C 18.0039,188.777 18.6705,185.11 20.5,181.5C 18.0976,179.091 15.4309,177.091 12.5,175.5C 16.1667,174.833 19.8333,174.167 23.5,173.5C 24.3597,170.089 25.5263,166.756 27,163.5C 28.8129,166.785 30.3129,170.118 31.5,173.5 Z"/></g>
<g><path style="opacity:1" fill="#f2f4f7" d="M 152.5,173.5 C 156.167,174.167 159.833,174.833 163.5,175.5C 160.569,177.091 157.902,179.091 155.5,181.5C 157.329,185.11 157.996,188.777 157.5,192.5C 154.737,190.371 151.904,188.371 149,186.5C 145.646,188.912 142.146,190.745 138.5,192C 139.649,188.741 140.649,185.408 141.5,182C 139.361,179.697 137.028,177.53 134.5,175.5C 137.833,174.833 141.167,174.167 144.5,173.5C 145.61,170.188 146.944,166.855 148.5,163.5C 150.418,166.584 151.751,169.918 152.5,173.5 Z"/></g>
<g><path style="opacity:1" fill="#8b99ba" d="M 23.5,173.5 C 19.8333,174.167 16.1667,174.833 12.5,175.5C 11.9569,175.44 11.6236,175.107 11.5,174.5C 15.4454,173.509 19.4454,173.176 23.5,173.5 Z"/></g>
<g><path style="opacity:1" fill="#8d9bbd" d="M 31.5,173.5 C 35.5138,173.334 39.5138,173.501 43.5,174C 42.9558,174.717 42.2891,175.217 41.5,175.5C 38.1667,174.833 34.8333,174.167 31.5,173.5 Z"/></g>
<g><path style="opacity:1" fill="#8e9bbe" d="M 84.5,173.5 C 80.8333,174.167 77.1667,174.833 73.5,175.5C 72.7109,175.217 72.0442,174.717 71.5,174C 75.8206,173.501 80.1539,173.334 84.5,173.5 Z"/></g>
<g><path style="opacity:1" fill="#919dbd" d="M 91.5,173.5 C 95.5546,173.176 99.5546,173.509 103.5,174.5C 103.376,175.107 103.043,175.44 102.5,175.5C 98.8333,174.833 95.1667,174.167 91.5,173.5 Z"/></g>
<g><path style="opacity:1" fill="#929ebf" d="M 144.5,173.5 C 141.167,174.167 137.833,174.833 134.5,175.5C 133.957,175.44 133.624,175.107 133.5,174.5C 137.107,173.511 140.774,173.177 144.5,173.5 Z"/></g>
<g><path style="opacity:1" fill="#8d9aba" d="M 152.5,173.5 C 156.555,173.176 160.555,173.509 164.5,174.5C 164.376,175.107 164.043,175.44 163.5,175.5C 159.833,174.833 156.167,174.167 152.5,173.5 Z"/></g>
<g><path style="opacity:1" fill="#fdfbfb" d="M 205.5,176.5 C 350.167,176.5 494.833,176.5 639.5,176.5C 639.5,185.5 639.5,194.5 639.5,203.5C 494.833,203.5 350.167,203.5 205.5,203.5C 205.5,194.5 205.5,185.5 205.5,176.5 Z"/></g>
<g><path style="opacity:1" fill="#be0a2f" d="M -0.5,203.5 C 68.1667,203.5 136.833,203.5 205.5,203.5C 350.167,203.5 494.833,203.5 639.5,203.5C 639.5,211.833 639.5,220.167 639.5,228.5C 426.167,228.5 212.833,228.5 -0.5,228.5C -0.5,220.167 -0.5,211.833 -0.5,203.5 Z"/></g>
<g><path style="opacity:1" fill="#f0cad1" d="M -0.5,228.5 C 212.833,228.5 426.167,228.5 639.5,228.5C 639.5,237.167 639.5,245.833 639.5,254.5C 426.167,254.5 212.833,254.5 -0.5,254.5C -0.5,245.833 -0.5,237.167 -0.5,228.5 Z"/></g>
<g><path style="opacity:1" fill="#fefefe" d="M 0.5,229.5 C 213.167,229.5 425.833,229.5 638.5,229.5C 638.5,237.5 638.5,245.5 638.5,253.5C 425.833,253.5 213.167,253.5 0.5,253.5C 0.5,245.5 0.5,237.5 0.5,229.5 Z"/></g>
<g><path style="opacity:1" fill="#be0a2f" d="M -0.5,254.5 C 212.833,254.5 426.167,254.5 639.5,254.5C 639.5,262.833 639.5,271.167 639.5,279.5C 426.167,279.5 212.833,279.5 -0.5,279.5C -0.5,271.167 -0.5,262.833 -0.5,254.5 Z"/></g>
<g><path style="opacity:1" fill="#fdfafb" d="M -0.5,279.5 C 212.833,279.5 426.167,279.5 639.5,279.5C 639.5,288.5 639.5,297.5 639.5,306.5C 426.167,306.5 212.833,306.5 -0.5,306.5C -0.5,297.5 -0.5,288.5 -0.5,279.5 Z"/></g>
<g><path style="opacity:1" fill="#c41e35" d="M -0.5,306.5 C 212.833,306.5 426.167,306.5 639.5,306.5C 639.5,307.167 639.5,307.833 639.5,308.5C 426.167,308.5 212.833,308.5 -0.5,308.5C -0.5,307.833 -0.5,307.167 -0.5,306.5 Z"/></g>
<g><path style="opacity:1" fill="#bf0b30" d="M -0.5,308.5 C 212.833,308.5 426.167,308.5 639.5,308.5C 639.5,315.5 639.5,322.5 639.5,329.5C 426.167,328.167 212.833,328.167 -0.5,329.5C -0.5,322.5 -0.5,315.5 -0.5,308.5 Z"/></g>
<g><path style="opacity:1" fill="#c11a38" d="M 639.5,329.5 C 639.5,330.5 639.5,331.5 639.5,332.5C 426.167,332.5 212.833,332.5 -0.5,332.5C -0.5,331.5 -0.5,330.5 -0.5,329.5C 212.833,328.167 426.167,328.167 639.5,329.5 Z"/></g>
<g><path style="opacity:1" fill="#fefefe" d="M -0.5,332.5 C 212.833,332.5 426.167,332.5 639.5,332.5C 639.5,340.833 639.5,349.167 639.5,357.5C 426.167,357.5 212.833,357.5 -0.5,357.5C -0.5,349.167 -0.5,340.833 -0.5,332.5 Z"/></g>
<g><path style="opacity:1" fill="#c53440" d="M -0.5,357.5 C 212.833,357.5 426.167,357.5 639.5,357.5C 639.5,358.167 639.5,358.833 639.5,359.5C 426.167,359.5 212.833,359.5 -0.5,359.5C -0.5,358.833 -0.5,358.167 -0.5,357.5 Z"/></g>
<g><path style="opacity:1" fill="#bf0b30" d="M -0.5,359.5 C 212.833,359.5 426.167,359.5 639.5,359.5C 639.5,367.5 639.5,375.5 639.5,383.5C 426.167,383.5 212.833,383.5 -0.5,383.5C -0.5,375.5 -0.5,367.5 -0.5,359.5 Z"/></g>
</svg>
